G04 ================== begin FILE IDENTIFICATION RECORD ==================*
G04 Layout Name:  controller.brd*
G04 Film Name:    BOTTOM*
G04 File Format:  Gerber RS274X*
G04 File Origin:  Cadence Allegro 16.3-p003*
G04 Origin Date:  Wed Apr 29 14:54:59 2015*
G04 *
G04 Layer:  VIA CLASS/BOTTOM*
G04 Layer:  PIN/BOTTOM*
G04 Layer:  ETCH/BOTTOM*
G04 *
G04 Offset:    (0.00 0.00)*
G04 Mirror:    No*
G04 Mode:      Positive*
G04 Rotation:  0*
G04 FullContactRelief:  No*
G04 UndefLineWidth:     0.00*
G04 ================== end FILE IDENTIFICATION RECORD ====================*
%FSLAX53Y53*MOIN*%
%IR0*IPPOS*OFA0.00000B0.00000*MIA0B0*SFA1.00000B1.00000*%
%ADD11C,.04*%
%ADD12C,.06*%
%ADD14C,.062*%
%ADD10C,.08*%
%ADD16C,.055*%
%ADD13R,.06X.06*%
%ADD15R,.062X.062*%
%ADD17R,.055X.055*%
%ADD18C,.07087*%
%ADD19R,.07087X.07087*%
%ADD20C,.13*%
%ADD21C,.02*%
%ADD22C,.025*%
%ADD23C,.009*%
%ADD24R,.12004X.12004*%
%ADD25C,.12004*%
G75*
%LPD*%
G75*
G36*
G01X16120Y6360D02*
Y9880D01*
X18720D01*
Y6360D01*
X16120D01*
G37*
%LPC*%
G75*
G36*
G01X18473Y8893D02*
G03X18467I-3J-3D01*
G02X18374Y8969I-47J37D01*
G01X18210Y9133D01*
Y9235D01*
X18185D01*
Y9365D01*
X18186Y9368D01*
X18100Y9453D01*
Y9610D01*
X18080D01*
Y9730D01*
X18200D01*
Y9610D01*
X18180D01*
Y9560D01*
X18270D01*
G02Y9480I30J-40D01*
G01X18196D01*
G03X18193Y9473I0J-4D01*
G01X18290Y9377D01*
Y9365D01*
X18315D01*
Y9362D01*
G03X18321Y9359I4J0D01*
G02X18397Y9345I29J-59D01*
G03X18403I3J3D01*
G02X18407Y9251I47J-45D01*
G03X18400Y9248I-3J-3D01*
G01Y9230D01*
X18400Y9229D01*
G02X18317Y9226I-40J-29D01*
G01X18310Y9233D01*
Y9235D01*
X18290D01*
Y9167D01*
X18460Y8997D01*
Y8975D01*
G02X18467Y8967I-40J-45D01*
G03X18473I3J3D01*
G02Y8893I47J-37D01*
G37*
G36*
G01X16399Y8199D02*
X16400Y8199D01*
X16426Y8225D01*
X16494D01*
G02Y8155I36J-35D01*
G01X16454D01*
X16449Y8150D01*
X16449Y8149D01*
G02X16399Y8199I-59J-9D01*
G37*
G36*
G01X16831Y6690D02*
Y6641D01*
G02X16761I-35J-61D01*
G01Y6718D01*
G03X16758Y6719I-2J0D01*
G01X16757Y6718D01*
X16754D01*
X16712Y6675D01*
X16656D01*
G02Y6745I-36J35D01*
G01X16683D01*
X16726Y6787D01*
X16728D01*
X16766Y6825D01*
X17014D01*
X17032Y6807D01*
X17033Y6807D01*
G02X17075Y6704I7J-57D01*
G01Y6626D01*
G02X17005I-35J-36D01*
G01Y6704D01*
G02X16982Y6751I35J46D01*
G03X16978Y6755I-4J0D01*
G01X16883D01*
G03X16879Y6751I0J-4D01*
G02X16831Y6690I-49J-11D01*
G37*
G36*
G01X17672Y8863D02*
G02X17593Y8867I-42J-43D01*
G03Y8873I-3J3D01*
G02X17578Y8950I37J47D01*
G03X17574Y8955I-3J2D01*
G01X17426D01*
G02Y9025I-36J35D01*
G01X17467D01*
G03X17470Y9031I0J4D01*
G01X17356Y9145D01*
X17196D01*
X17181Y9160D01*
X17180Y9160D01*
G02X17196Y9257I0J50D01*
G03X17201Y9260I1J4D01*
G02X17284Y9287I49J-10D01*
G03X17290Y9290I3J3D01*
G02X17376Y9325I50J0D01*
G01X17377Y9325D01*
X17382D01*
Y9327D01*
X17382Y9328D01*
G02X17405Y9408I38J32D01*
G03X17407Y9414I-1J4D01*
G01X17266Y9555D01*
X17074D01*
X16980Y9461D01*
G02X16894Y9411I-40J-31D01*
G03X16886I-4J-2D01*
G02X16805Y9466I-46J19D01*
G01Y9494D01*
X16976Y9665D01*
X17186D01*
G03X17189Y9671I0J4D01*
G02X17230Y9750I41J29D01*
G01X17231Y9750D01*
X17246Y9765D01*
X17340D01*
G02X17437Y9769I50J-35D01*
G03X17443I3J3D01*
G02X17537I47J-39D01*
G03X17543I3J3D01*
G02X17637I47J-39D01*
G03X17643I3J3D01*
G02X17737I47J-39D01*
G03X17743I3J3D01*
G02X17829Y9683I47J-39D01*
G03Y9677I3J-3D01*
G02X17743Y9591I-39J-47D01*
G03X17737I-3J-3D01*
G02X17643I-47J39D01*
G03X17637I-3J-3D01*
G02X17625Y9580I-47J39D01*
G01Y9496D01*
X17530Y9401D01*
G03X17533Y9395I3J-3D01*
G01X17611D01*
G02X17697Y9313I49J-35D01*
G03Y9307I3J-3D01*
G02Y9213I-37J-47D01*
G03Y9207I3J-3D01*
G02X17710Y9126I-37J-47D01*
G03X17713Y9120I3J-2D01*
G01X17720D01*
Y9025D01*
X17876D01*
X17886Y9035D01*
X17894D01*
X17894Y9036D01*
G02X17960Y9041I36J-35D01*
G01X18136D01*
X18187Y8990D01*
X18188Y8990D01*
G02X18237Y8967I2J-60D01*
G03X18243I3J3D01*
G02Y8893I47J-37D01*
G03X18237I-3J-3D01*
G02X18130Y8932I-47J37D01*
G01X18130Y8933D01*
X18103Y8961D01*
X17960D01*
G02X17957Y8959I-30J40D01*
G03Y8952I2J-3D01*
G02X17900Y8870I-27J-42D01*
G01X17675D01*
G03X17672Y8863I0J-4D01*
G37*
G36*
G01X17927Y6480D02*
X17343D01*
X17220Y6603D01*
Y6827D01*
X17352Y6959D01*
Y7018D01*
X17375D01*
Y7074D01*
G02X17372Y7079I25J24D01*
G02X17445Y7097I28J41D01*
G01Y7018D01*
X17468D01*
Y6902D01*
X17409D01*
X17300Y6793D01*
Y6637D01*
X17343Y6593D01*
G03X17350Y6596I3J3D01*
G02X17365Y6626I50J-6D01*
G01Y6692D01*
X17342D01*
Y6808D01*
X17401D01*
X17433Y6840D01*
X17705D01*
Y6860D01*
X17683D01*
X17570Y6973D01*
Y7407D01*
X17582Y7419D01*
G03X17579Y7425I-3J3D01*
G01X17483D01*
G03X17479Y7421I0J-4D01*
G02X17475Y7387I-49J-11D01*
G01Y7338D01*
X17498D01*
Y7222D01*
X17382D01*
Y7338D01*
X17405D01*
Y7364D01*
G02X17402Y7369I25J24D01*
G02X17388Y7383I28J41D01*
G03X17382Y7383I-3J-2D01*
G01X17355Y7356D01*
Y7276D01*
X17234Y7155D01*
X17094D01*
G03X17091Y7149I0J-4D01*
G02X17085Y7084I-41J-29D01*
G01Y7006D01*
G02X17004Y6925I-35J-46D01*
G01X16416D01*
X16375Y6966D01*
Y7004D01*
G02X16430Y7086I35J36D01*
G03X16435Y7090I2J4D01*
G01Y7187D01*
G03X16431Y7191I-4J0D01*
G02X16384Y7205I-11J49D01*
G01X16355D01*
X16335Y7185D01*
X16281D01*
G02X16255Y7159I-61J35D01*
G01Y6641D01*
G02X16280Y6616I-35J-61D01*
G01X16281Y6615D01*
X16284D01*
X16304Y6595D01*
X16354D01*
G02Y6525I36J-35D01*
G01X16275D01*
X16270Y6531D01*
X16268Y6529D01*
G02X16185Y6641I-48J51D01*
G01Y7159D01*
G02Y7281I35J61D01*
G01Y7294D01*
X16205Y7314D01*
Y7644D01*
G02Y7716I35J36D01*
G01Y7804D01*
X16331Y7930D01*
X16331Y7931D01*
G02X16399Y7999I59J9D01*
G01X16400Y7999D01*
X16416Y8015D01*
X16534D01*
G02X16599Y8021I36J-35D01*
G03X16605Y8024I2J3D01*
G01Y8486D01*
X16505Y8586D01*
Y8594D01*
G02X16584Y8606I35J36D01*
G01X16675Y8515D01*
Y8034D01*
X16782Y7927D01*
G03X16788Y7927I3J3D01*
G02X16880Y7900I42J-27D01*
G01X16880Y7899D01*
X16995Y7784D01*
Y7636D01*
X16980Y7621D01*
G03X16983Y7615I3J-3D01*
G01X16996D01*
X17033Y7652D01*
G03X17033Y7658I-3J3D01*
G02X17054Y7750I27J42D01*
G01X17055Y7750D01*
Y8094D01*
X17220Y8258D01*
G03X17218Y8265I-3J3D01*
G02X17205Y8346I22J45D01*
G01Y8496D01*
X16986Y8715D01*
X16276D01*
X16195Y8796D01*
Y9094D01*
X16436Y9335D01*
X16814D01*
G02Y9265I36J-35D01*
G01X16690D01*
G03X16686Y9260I0J-4D01*
G02X16604Y9205I-46J-20D01*
G01X16544D01*
X16424Y9085D01*
X16414D01*
G03X16411Y9079I0J-4D01*
G02X16418Y9065I-41J-29D01*
G03X16424Y9064I4J1D01*
G01X16525Y9165D01*
X16614D01*
G02X16697Y9112I36J-35D01*
G02X16714Y9046I-27J-42D01*
G03X16718Y9040I3J-2D01*
G02X16769Y8933I12J-60D01*
G03Y8927I3J-3D01*
G02X16791Y8880I-39J-47D01*
G03X16798Y8877I4J0D01*
G01X16826Y8906D01*
G02X16905Y8894I44J24D01*
G01X16905Y8888D01*
X16907D01*
X16908Y8888D01*
G02X16911Y8809I32J-38D01*
G01X16909Y8810D01*
X16890Y8791D01*
G03X16893Y8785I3J-3D01*
G01X17014D01*
X17169Y8630D01*
G03X17175Y8633I3J3D01*
G01Y8724D01*
G02X17245I35J36D01*
G01Y8614D01*
X17289Y8570D01*
G03X17295Y8573I3J3D01*
G01Y8804D01*
X17366Y8875D01*
X17384D01*
G02X17391Y8799I36J-35D01*
G01X17389Y8800D01*
X17365Y8776D01*
Y8246D01*
X17195Y8076D01*
Y7986D01*
G02X17131Y7909I-35J-36D01*
G03X17125Y7906I-2J-3D01*
G01Y7716D01*
X17120Y7711D01*
G03X17123Y7705I3J-3D01*
G01X17204D01*
X17265Y7644D01*
Y7486D01*
X17115Y7336D01*
Y7326D01*
X17115Y7325D01*
G02X17126Y7315I-35J-45D01*
G01X17184D01*
G02X17268Y7295I36J-35D01*
G03X17274Y7293I4J1D01*
G01X17285Y7304D01*
Y7384D01*
X17396Y7495D01*
X17442D01*
Y7598D01*
X17465D01*
Y7647D01*
G02X17470Y7700I45J23D01*
G01Y7807D01*
X17725Y8061D01*
Y8135D01*
X17728D01*
G03X17731Y8141I0J4D01*
G02X17745Y8217I59J29D01*
G03Y8223I-3J3D01*
G02X17835I45J47D01*
G03Y8217I3J-3D01*
G02X17842Y8210I-45J-47D01*
G01X18303D01*
X18320Y8227D01*
Y8290D01*
X18440D01*
Y8170D01*
X18377D01*
X18337Y8130D01*
X18128D01*
G03X18126Y8123I0J-4D01*
G02X18140Y8050I-26J-43D01*
G01Y7643D01*
X17957Y7460D01*
X17845D01*
Y7335D01*
X17820D01*
Y7241D01*
G02Y7239I-50J-1D01*
G01Y7227D01*
X17818D01*
G02X17730Y7270I-48J13D01*
G02X17740Y7293I40J-3D01*
G01Y7335D01*
X17715D01*
Y7428D01*
G03X17708Y7431I-4J0D01*
G01X17650Y7373D01*
Y7007D01*
X17714Y6942D01*
G03X17720Y6942I3J3D01*
G02X17725Y6947I50J-42D01*
G03Y6953I-3J3D01*
G02X17822Y7040I45J47D01*
G01X17967D01*
X18067Y6940D01*
X18278D01*
G02X18285Y6947I52J-40D01*
G03Y6953I-3J3D01*
G02X18375I45J47D01*
G03Y6947I3J-3D01*
G02X18381Y6941I-45J-47D01*
G01X18382Y6940D01*
X18384D01*
X18400Y6956D01*
Y7953D01*
X18383Y7970D01*
X18382Y7970D01*
G02X18440Y8028I-2J60D01*
G01X18440Y8027D01*
X18480Y7987D01*
Y6923D01*
X18417Y6860D01*
X18395D01*
Y6735D01*
X18370D01*
Y6733D01*
X18307Y6670D01*
X18117D01*
X17927Y6480D01*
G37*
G54D24*
X16390Y8340D03*
G54D25*
X18340Y9670D03*
%LPD*%
G75*
G36*
G01X16627Y7984D02*
X16875Y7736D01*
Y7715D01*
G02X16868Y7712I-4J0D01*
G03X16794Y7715I-38J-32D01*
G01X16566D01*
X16525Y7674D01*
Y7420D01*
G02X16520Y7416I-4J0D01*
G03X16450Y7369I-20J-46D01*
G02X16446Y7365I-4J0D01*
G01X16355D01*
Y7591D01*
G03X16296Y7671I-35J36D01*
G02X16290Y7675I-2J3D01*
G03X16275Y7716I-50J5D01*
G01Y7776D01*
X16380Y7881D01*
X16381Y7881D01*
G03X16450Y7941I9J59D01*
G02X16454Y7945I4J0D01*
G01X16534D01*
G03X16620Y7981I36J35D01*
G02X16627Y7984I4J0D01*
G37*
G36*
G01X16281Y7255D02*
G03X16267Y7272I-61J-35D01*
G02X16267Y7278I3J3D01*
G01X16275Y7286D01*
Y7593D01*
G02X16282Y7595I4J0D01*
G03X16285Y7591I38J32D01*
G01Y7295D01*
X16435D01*
Y7293D01*
G02X16431Y7289I-4J0D01*
G03X16384Y7275I-11J-49D01*
G01X16326D01*
X16306Y7255D01*
X16281D01*
G37*
G36*
G01X16500Y9042D02*
X16554Y9095D01*
X16587D01*
G02X16590Y9089I0J-4D01*
G01X16541Y9040D01*
X16540Y9040D01*
G03X16505Y9036I-10J-60D01*
G02X16500Y9042I-2J4D01*
G37*
G36*
G01X16360Y9161D02*
X16464Y9265D01*
X16497D01*
G02X16500Y9259I0J-4D01*
G01X16396Y9155D01*
X16363D01*
G02X16360Y9161I0J4D01*
G37*
G36*
G01X16634Y7135D02*
X16595Y7175D01*
Y7577D01*
G02X16599Y7581I4J0D01*
G03X16658Y7615I11J49D01*
G01X16676D01*
X16716Y7575D01*
X16767D01*
G02X16770Y7569I0J-4D01*
G01X16685Y7484D01*
Y7124D01*
G02X16679Y7121I-4J0D01*
G03X16650Y7130I-29J-41D01*
G01X16649Y7130D01*
X16643Y7135D01*
X16634D01*
G37*
G36*
G01X16755Y7073D02*
X16755Y7156D01*
G02X16761Y7160I4J0D01*
G03X16858Y7187I35J60D01*
G02X16865Y7185I4J-2D01*
G01Y7174D01*
X16761Y7070D01*
G02X16755Y7073I-3J3D01*
G37*
G36*
G01X16541Y7130D02*
X16601Y7071D01*
X16601Y7070D01*
G03X16601Y7069I49J10D01*
G02X16597Y7065I-4J-1D01*
G01X16584D01*
X16535Y7114D01*
Y7127D01*
G02X16541Y7130I4J0D01*
G37*
G36*
G01X16790Y7001D02*
X16935Y7146D01*
Y7294D01*
X16885Y7344D01*
Y7437D01*
G02X16891Y7440I4J0D01*
G01X16955Y7376D01*
Y7236D01*
X17023Y7168D01*
G02X17023Y7162I-3J-3D01*
G03X17015Y7084I27J-42D01*
G01Y7006D01*
G03X17004Y6995I35J-46D01*
G01X16793D01*
G02X16790Y7001I0J4D01*
G37*
G36*
G01X16755Y7456D02*
X16809Y7510D01*
G02X16815Y7507I3J-3D01*
G01Y7430D01*
G02X16810Y7426I-4J0D01*
G03X16761Y7421I-20J-46D01*
G02X16755Y7424I-2J3D01*
G01Y7456D01*
G37*
G36*
G01X17159Y7478D02*
X17045Y7364D01*
Y7326D01*
G03X17032Y7311I35J-46D01*
G02X17025Y7314I-3J2D01*
G01Y7404D01*
X16964Y7465D01*
X16964Y7467D01*
G03X16969Y7501I-44J23D01*
G02X16973Y7505I4J1D01*
G01X17094D01*
G03X17155Y7485I46J35D01*
G02X17159Y7478I1J-4D01*
G37*
G36*
G01X17060Y7581D02*
X17096Y7617D01*
G02X17102Y7615I3J-3D01*
G03X17109Y7601I48J15D01*
G01X17110Y7599D01*
X17105Y7594D01*
Y7586D01*
X17105Y7585D01*
G03X17094Y7575I35J-45D01*
G01X17063D01*
G02X17060Y7581I0J4D01*
G37*
G36*
G01X16875Y9466D02*
X17004Y9595D01*
X17007D01*
G02X17010Y9589I0J-4D01*
G01X16905Y9484D01*
Y9466D01*
G03X16894Y9449I35J-36D01*
G02X16886I-4J2D01*
G03X16876Y9465I-46J-19D01*
G01X16875Y9466D01*
G37*
G36*
G01X17111Y7232D02*
G03X17126Y7245I-31J48D01*
G01X17184D01*
G03X17205Y7232I36J35D01*
G02X17207Y7226I-1J-4D01*
G01X17206Y7225D01*
X17114D01*
G02X17111Y7232I0J4D01*
G37*
G36*
G01X17426Y9493D02*
X17357Y9562D01*
G02X17359Y9569I3J3D01*
G01X17451D01*
Y9579D01*
G02X17454Y9581I2J0D01*
G03X17455Y9580I36J49D01*
G01Y9524D01*
G03X17432Y9495I25J-44D01*
G02X17426Y9493I-4J1D01*
G37*
G36*
G01X17271Y9671D02*
G03X17280Y9694I-41J29D01*
G01X17280Y9695D01*
X17340D01*
G03X17341Y9694I50J35D01*
G02X17339Y9691I-2J-1D01*
G01X17329D01*
Y9665D01*
X17274D01*
G02X17271Y9671I0J4D01*
G37*
G36*
G01X18083Y6750D02*
X17893Y6560D01*
X17447D01*
G02X17444Y6566I0J4D01*
G03X17435Y6626I-44J24D01*
G01Y6692D01*
X17458D01*
Y6751D01*
X17467Y6760D01*
X17705D01*
Y6735D01*
X17835D01*
Y6865D01*
X17832D01*
G02X17829Y6871I0J4D01*
G03X17815Y6947I-59J29D01*
G02Y6953I3J3D01*
G03X17822Y6960I-45J47D01*
G01X17875D01*
Y6946D01*
X17890Y6931D01*
X17890Y6930D01*
G03X17983Y6904I50J0D01*
G02X17989Y6905I3J-2D01*
G01X18033Y6860D01*
X18265D01*
Y6750D01*
X18083D01*
G37*
G36*
G01X17696Y7635D02*
X17564Y7503D01*
G02X17558Y7506I-3J3D01*
G01Y7598D01*
X17535D01*
Y7624D01*
G03X17538Y7629I-25J24D01*
G03X17550Y7700I-28J41D01*
G01Y7773D01*
X17781Y8005D01*
X17820D01*
Y7659D01*
G02X17814Y7656I-4J0D01*
G03X17724Y7635I-34J-56D01*
G01X17696D01*
G37*
G36*
G01X17702Y8950D02*
X17700Y8952D01*
G02X17701Y8955I1J1D01*
G01X17901D01*
G02X17903Y8952I0J-2D01*
G03X17900Y8950I27J-42D01*
G01X17702D01*
G37*
G36*
G01X17504Y9295D02*
X17480Y9319D01*
G02X17483Y9325I3J3D01*
G01X17611D01*
G03X17623Y9313I49J35D01*
G02Y9307I-3J-3D01*
G03X17611Y9295I37J-47D01*
G01X17504D01*
G37*
G36*
G01Y9195D02*
X17480Y9219D01*
G02X17483Y9225I3J3D01*
G01X17611D01*
G03X17623Y9213I49J35D01*
G02Y9207I-3J-3D01*
G03X17611Y9195I37J-47D01*
G01X17504D01*
G37*
G36*
G01Y9095D02*
X17480Y9119D01*
G02X17483Y9125I3J3D01*
G01X17611D01*
G03X17613Y9123I49J34D01*
G02X17611Y9120I-2J-1D01*
G01X17600D01*
Y9095D01*
X17504D01*
G37*
G36*
G01X17525Y9502D02*
G03X17525Y9503I-45J-22D01*
G01Y9580D01*
G03X17537Y9591I-35J50D01*
G02X17543I3J-3D01*
G03X17555Y9580I47J39D01*
G01Y9524D01*
X17532Y9500D01*
G02X17525Y9502I-3J3D01*
G37*
G36*
G01X18060Y7677D02*
X17923Y7540D01*
X17832D01*
G03X17825Y7547I-52J-40D01*
G02Y7553I3J3D01*
G03X17832Y7560I-45J47D01*
G01X17900D01*
Y8130D01*
X18072D01*
G02X18074Y8123I0J-4D01*
G03X18060Y8050I26J-43D01*
G01Y7677D01*
G37*
G54D10*
X16220Y6580D03*
Y7220D03*
X16796Y6580D03*
Y7220D03*
G54D20*
X18590Y6500D03*
Y7700D03*
Y8540D03*
Y9720D03*
G54D11*
X16390Y6560D03*
X16410Y7040D03*
X16420Y7240D03*
X16500Y7370D03*
X16240Y7680D03*
X16320Y7628D03*
X16530Y8190D03*
X16480Y8560D03*
X16370Y9050D03*
X16830Y6740D03*
X16620Y6710D03*
X16650Y7080D03*
X16790Y7380D03*
X16610Y7630D03*
X16830Y7680D03*
X16570Y7980D03*
X16830Y7900D03*
X16540Y8630D03*
X16640Y9240D03*
X16650Y9130D03*
X16670Y9070D03*
X16810Y9770D03*
X16570Y9750D03*
X17040Y6590D03*
X17050Y7120D03*
X16920Y7490D03*
X16910Y7670D03*
X17060Y7700D03*
X16940Y8850D03*
X16870Y8930D03*
X16850Y9300D03*
X16840Y9430D03*
X16940D03*
X17400Y6590D03*
Y7120D03*
X17220Y7280D03*
X17430Y7410D03*
X17150Y7630D03*
X17160Y7950D03*
X17240Y8310D03*
X17420Y8840D03*
X17210Y8760D03*
X17390Y8990D03*
X17180Y9210D03*
X17250Y9250D03*
X17340Y9290D03*
X17420Y9360D03*
X17230Y9700D03*
X17290Y9820D03*
X17510Y7670D03*
X17480Y9480D03*
X17940Y6930D03*
X17770Y7240D03*
X17930Y9001D03*
Y8910D03*
X18100Y8080D03*
X18290Y8790D03*
X18300Y9520D03*
X18360Y9200D03*
G54D21*
G01X17410Y6960D02*
X17260Y6810D01*
Y6620D01*
X17360Y6520D01*
X17910D01*
X18100Y6710D01*
X18290D01*
X18330Y6750D01*
Y6800D01*
G01X17770D02*
X17450D01*
X17400Y6750D01*
G01X17770Y6900D02*
X17700D01*
X17610Y6990D01*
Y7390D01*
X17720Y7500D01*
X17780D01*
G01X17790Y8070D02*
X17510Y7790D01*
Y7670D01*
G01X17630Y8430D02*
X17790Y8270D01*
G01X17630Y8820D02*
Y8430D01*
G01X18260Y8820D02*
X17630D01*
G01Y8920D02*
X17675D01*
X17685Y8910D01*
X17930D01*
G01X17590Y9730D02*
X17660Y9800D01*
G01D02*
X18210D01*
G01X18330Y6900D02*
X18050D01*
X17950Y7000D01*
X17910D01*
G01D02*
X17770D01*
G01Y7240D02*
Y7267D01*
X17780D01*
Y7400D01*
G01Y7500D02*
X17940D01*
X18100Y7660D01*
Y8080D01*
G01X17780Y7600D02*
X17860D01*
Y8170D01*
G01D02*
X18320D01*
X18380Y8230D01*
G01X17860Y8170D02*
X17790D01*
G01Y8270D02*
X17900Y8380D01*
G01D02*
X18418D01*
X18478Y8320D01*
Y8178D01*
X18410Y8110D01*
X18330D01*
X18240Y8020D01*
Y7090D01*
G01X17930Y9001D02*
X18119D01*
X18190Y8930D01*
G01X18240Y7090D02*
X18330Y7000D01*
G01X18290Y8930D02*
Y8790D01*
G01D02*
X18260Y8820D01*
G01X18290Y8790D02*
X18380D01*
G01X18250Y9300D02*
Y9360D01*
X18140Y9470D01*
Y9520D01*
G01X18250Y9300D02*
Y9150D01*
X18420Y8980D01*
Y8930D01*
G01X18140Y9520D02*
Y9670D01*
G01X18300Y9520D02*
X18140D01*
G01X18210Y9800D02*
X18340Y9670D01*
G01X18330Y6900D02*
X18400D01*
X18440Y6940D01*
Y7970D01*
X18380Y8030D01*
G01X18520Y8930D02*
Y9100D01*
G01X18380Y8790D02*
X18520Y8930D01*
G01X18350Y9300D02*
Y9250D01*
X18360Y9240D01*
Y9200D01*
G01X18450Y9300D02*
Y9560D01*
G01X18520Y9100D02*
X18450Y9170D01*
G01D02*
Y9300D01*
G01Y9560D02*
X18340Y9670D01*
G54D12*
X16390Y7940D03*
Y8140D03*
X17630Y8820D03*
Y8920D03*
X17660Y9260D03*
Y9160D03*
Y9360D03*
X18290Y8930D03*
X18190D03*
X18380Y8030D03*
X18520Y8930D03*
X18420D03*
X18340Y9670D03*
G54D22*
G01X16390Y8278D02*
Y8340D01*
G01X16328D02*
X16390D01*
G01D02*
X16452D01*
G01X17790Y8270D02*
Y8337D01*
G01X17723Y8270D02*
X17790D01*
G01D02*
X17857D01*
G01X18263Y7000D02*
X18330D01*
G01X18290Y8930D02*
Y8992D01*
G01Y8930D02*
X18352D01*
G01X18278Y9670D02*
X18340D01*
G01X18330Y7000D02*
Y7067D01*
G01Y7000D02*
X18397D01*
G01X18520Y8868D02*
Y8930D01*
G01D02*
X18582D01*
G01X18340Y9608D02*
Y9670D01*
G01D02*
Y9732D01*
G01Y9670D02*
X18402D01*
G54D13*
X16390Y8340D03*
X17660Y9060D03*
X18140Y9670D03*
X18380Y8230D03*
G54D23*
G01X16220Y6580D02*
Y7220D01*
G01X16390Y6560D02*
X16290D01*
X16270Y6580D01*
X16220D01*
G01X17080Y7280D02*
Y7350D01*
X17230Y7500D01*
Y7630D01*
X17190Y7670D01*
X17100D01*
X17010Y7580D01*
X16830D01*
X16720Y7470D01*
Y7070D01*
X16680Y7030D01*
X16570D01*
X16500Y7100D01*
Y7370D01*
G01X17140Y7540D02*
X16890D01*
X16850Y7500D01*
Y7330D01*
X16900Y7280D01*
Y7160D01*
X16740Y7000D01*
X16510D01*
X16470Y7040D01*
Y7330D01*
X16320D01*
Y7628D01*
G01X17050Y6960D02*
X16430D01*
X16410Y6980D01*
Y7040D01*
G01X16420Y7240D02*
X16340D01*
X16320Y7220D01*
X16220D01*
G01D02*
Y7280D01*
X16240Y7300D01*
Y7680D01*
G01X16390Y7940D02*
X16240Y7790D01*
Y7680D01*
G01X16570Y7980D02*
X16430D01*
X16390Y7940D01*
G01X16530Y8190D02*
X16440D01*
X16390Y8140D01*
G01Y8470D02*
Y8340D01*
G01X16480Y8560D02*
X16390Y8470D01*
G01X16640Y9240D02*
X16530D01*
X16410Y9120D01*
X16360D01*
X16270Y9030D01*
Y8830D01*
X16310Y8790D01*
X16840D01*
X16900Y8850D01*
X16940D01*
G01X16850Y9300D02*
X16450D01*
X16230Y9080D01*
Y8810D01*
X16290Y8750D01*
X17000D01*
X17240Y8510D01*
Y8310D01*
G01X16330Y8880D02*
Y8980D01*
G01X16370Y9050D02*
Y9020D01*
X16330Y8980D01*
G01X16430Y8880D02*
Y8980D01*
G01X16650Y9130D02*
X16540D01*
X16430Y9020D01*
Y8980D01*
G01X16830Y6740D02*
X16796Y6706D01*
Y6580D01*
G01X17040Y6750D02*
X17000Y6790D01*
X16780D01*
X16742Y6752D01*
X16740D01*
X16698Y6710D01*
X16620D01*
G01X16830Y7680D02*
X16580D01*
X16560Y7660D01*
Y7160D01*
X16619Y7101D01*
X16629D01*
X16650Y7080D01*
G01X16790Y7380D02*
Y7350D01*
X16796Y7344D01*
Y7220D01*
G01X16610Y7630D02*
X16630Y7650D01*
X16690D01*
X16730Y7610D01*
X16920D01*
X16960Y7650D01*
Y7770D01*
X16830Y7900D01*
G01X16910Y7670D02*
Y7750D01*
X16640Y8020D01*
Y8500D01*
X16540Y8600D01*
Y8630D01*
G01X16530Y8880D02*
Y8980D01*
G01X16670Y9070D02*
X16620D01*
X16530Y8980D01*
G01X16630Y8880D02*
Y8980D01*
G01X16870Y8930D02*
Y8901D01*
X16790Y8820D01*
X16690D01*
X16630Y8880D01*
G01X16730D02*
Y8980D01*
G01X17280D02*
X16730D01*
G01X16570Y9750D02*
X16590Y9770D01*
X16810D01*
G01X17040Y6590D02*
Y6750D01*
G01X16920Y7490D02*
Y7460D01*
X16990Y7390D01*
Y7250D01*
X17050Y7190D01*
X17220D01*
X17320Y7290D01*
Y7370D01*
X17410Y7460D01*
X17570D01*
X17710Y7600D01*
X17780D01*
G01X17050Y6960D02*
Y7120D01*
G01X17220Y7280D02*
X17080D01*
G01X17060Y7700D02*
X17090Y7730D01*
Y8080D01*
X17290Y8280D01*
Y8520D01*
X17210Y8600D01*
Y8760D01*
G01X17390Y9630D02*
X16990D01*
X16840Y9480D01*
Y9430D01*
G01X17590Y9630D02*
Y9510D01*
X17500Y9420D01*
X17450D01*
X17280Y9590D01*
X17060D01*
X16940Y9470D01*
Y9430D01*
G01X16810Y9770D02*
X17140D01*
X17190Y9820D01*
X17290D01*
G01X17400Y6590D02*
Y6750D01*
G01Y7120D02*
Y7099D01*
X17410D01*
Y6960D01*
G01X17140Y7540D02*
Y7580D01*
X17150Y7590D01*
Y7630D01*
G01X17420Y8840D02*
X17380D01*
X17330Y8790D01*
Y8260D01*
X17160Y8090D01*
Y7950D01*
G01X17390Y8990D02*
X17890D01*
X17900Y9001D01*
X17930D01*
G01X17550Y8900D02*
X17360D01*
X17280Y8980D01*
G01X17180Y9210D02*
X17210Y9180D01*
X17370D01*
X17490Y9060D01*
X17660D01*
G01X17250Y9250D02*
X17271Y9229D01*
X17421D01*
X17490Y9160D01*
X17660D01*
G01X17340Y9290D02*
X17460D01*
X17490Y9260D01*
X17660D01*
G01X17230Y9700D02*
X17260Y9730D01*
X17390D01*
G01X17515Y9805D02*
X17305D01*
X17290Y9820D01*
G01X17430Y7410D02*
Y7389D01*
X17440D01*
Y7280D01*
G01X17510Y7670D02*
Y7648D01*
X17500D01*
Y7540D01*
G01X17630Y8820D02*
X17550Y8900D01*
G01X17660Y9360D02*
X17420D01*
G01X17490Y9630D02*
Y9480D01*
X17480D01*
G01X17590Y9730D02*
X17690D01*
G01X17590D02*
X17515Y9805D01*
G01X17940Y6930D02*
X17910Y6960D01*
Y7000D01*
G54D14*
X16530Y8980D03*
Y8880D03*
X16430Y8980D03*
Y8880D03*
X16330Y8980D03*
X16730D03*
Y8880D03*
X16630Y8980D03*
Y8880D03*
X17390Y9730D03*
X17690Y9630D03*
X17590D03*
X17490D03*
X17690Y9730D03*
X17590D03*
X17490D03*
X17790Y9630D03*
Y9730D03*
G54D15*
X16330Y8880D03*
X17390Y9630D03*
G54D16*
X17040Y6750D03*
X17050Y6960D03*
X17080Y7280D03*
X17140Y7540D03*
G54D17*
X17400Y6750D03*
X17410Y6960D03*
X17440Y7280D03*
X17500Y7540D03*
G54D18*
X17770Y6900D03*
Y7000D03*
X17780Y7500D03*
Y7600D03*
X17790Y8270D03*
Y8170D03*
X18330Y6900D03*
Y7000D03*
X18450Y9300D03*
X18350D03*
G54D19*
X17770Y6800D03*
X17780Y7400D03*
X17790Y8070D03*
X18330Y6800D03*
X18250Y9300D03*
M02*
