G04 ================== begin FILE IDENTIFICATION RECORD ==================*
G04 Layout Name:  controller.brd*
G04 Film Name:    smb*
G04 File Format:  Gerber RS274X*
G04 File Origin:  Cadence Allegro 16.3-p003*
G04 Origin Date:  Wed Apr 29 14:54:59 2015*
G04 *
G04 Layer:  BOARD GEOMETRY/OUTLINE*
G04 Layer:  PIN/SOLDERMASK_BOTTOM*
G04 Layer:  VIA CLASS/SOLDERMASK_BOTTOM*
G04 *
G04 Offset:    (0.00 0.00)*
G04 Mirror:    No*
G04 Mode:      Positive*
G04 Rotation:  0*
G04 FullContactRelief:  No*
G04 UndefLineWidth:     0.00*
G04 ================== end FILE IDENTIFICATION RECORD ====================*
%FSLAX53Y53*MOIN*%
%IR0*IPPOS*OFA0.00000B0.00000*MIA0B0*SFA1.00000B1.00000*%
%ADD11C,.05*%
%ADD21C,.08*%
%ADD13C,.065*%
%ADD18R,.069X.227*%
%ADD16C,.075*%
%ADD22R,.08X.08*%
%ADD14R,.065X.065*%
%ADD17R,.075X.075*%
%ADD25R,.058X.058*%
%ADD23C,.07087*%
%ADD24R,.07087X.07087*%
%ADD10C,.1*%
%ADD19R,.011X.047*%
%ADD12R,.025X.06*%
%ADD26C,.14*%
%ADD20R,.047X.011*%
%ADD15R,.039X.047*%
%ADD27C,.01*%
G75*
%LPD*%
G75*
G54D10*
X16220Y6580D03*
Y7220D03*
X16796Y6580D03*
Y7220D03*
G54D20*
X16723Y9290D03*
Y9310D03*
Y9330D03*
Y9350D03*
Y9370D03*
Y9390D03*
Y9410D03*
Y9430D03*
Y9450D03*
Y9470D03*
Y9490D03*
Y9510D03*
X17077Y9290D03*
Y9510D03*
Y9490D03*
Y9470D03*
Y9450D03*
Y9430D03*
Y9410D03*
Y9390D03*
Y9370D03*
Y9350D03*
Y9330D03*
Y9310D03*
G54D11*
X16390Y6560D03*
X16410Y7040D03*
X16420Y7240D03*
X16500Y7370D03*
X16240Y7680D03*
X16320Y7628D03*
X16530Y8190D03*
X16480Y8560D03*
X16370Y9050D03*
X16830Y6740D03*
X16620Y6710D03*
X16650Y7080D03*
X16790Y7380D03*
X16610Y7630D03*
X16830Y7680D03*
X16570Y7980D03*
X16830Y7900D03*
X16540Y8630D03*
X16640Y9240D03*
X16650Y9130D03*
X16670Y9070D03*
X16810Y9770D03*
X16570Y9750D03*
X17040Y6590D03*
X17050Y7120D03*
X16920Y7490D03*
X16910Y7670D03*
X17060Y7700D03*
X16940Y8850D03*
X16870Y8930D03*
X16850Y9300D03*
X16840Y9430D03*
X16940D03*
X17400Y6590D03*
Y7120D03*
X17220Y7280D03*
X17430Y7410D03*
X17150Y7630D03*
X17160Y7950D03*
X17240Y8310D03*
X17420Y8840D03*
X17210Y8760D03*
X17390Y8990D03*
X17180Y9210D03*
X17250Y9250D03*
X17340Y9290D03*
X17420Y9360D03*
X17230Y9700D03*
X17290Y9820D03*
X17510Y7670D03*
X17480Y9480D03*
X17940Y6930D03*
X17770Y7240D03*
X17930Y9001D03*
Y8910D03*
X18100Y8080D03*
X18290Y8790D03*
X18300Y9520D03*
X18360Y9200D03*
G54D12*
X16230Y6830D03*
Y6920D03*
Y7460D03*
Y7550D03*
G54D21*
X17040Y6750D03*
X17050Y6960D03*
X17080Y7280D03*
X17140Y7540D03*
G54D22*
X17400Y6750D03*
X17410Y6960D03*
X17440Y7280D03*
X17500Y7540D03*
G54D13*
X16390Y7940D03*
Y8140D03*
X17660Y9260D03*
Y9160D03*
Y9360D03*
X18380Y8030D03*
X18340Y9670D03*
G54D23*
X17770Y6900D03*
Y7000D03*
X17780Y7500D03*
Y7600D03*
X17790Y8270D03*
Y8170D03*
X18330Y6900D03*
Y7000D03*
X18450Y9300D03*
X18350D03*
G54D14*
X16390Y8340D03*
X17660Y9060D03*
X18140Y9670D03*
X18380Y8230D03*
G54D15*
X16330Y8580D03*
Y8680D03*
X16610D03*
Y8580D03*
X17120Y8420D03*
Y8320D03*
X16840D03*
Y8420D03*
X17020Y8750D03*
Y8850D03*
X17300D03*
Y8750D03*
G54D24*
X17770Y6800D03*
X17780Y7400D03*
X17790Y8070D03*
X18330Y6800D03*
X18250Y9300D03*
G54D25*
X17855Y9470D03*
X17770D03*
G54D16*
X16530Y8980D03*
Y8880D03*
X16430Y8980D03*
Y8880D03*
X16330Y8980D03*
X16730D03*
Y8880D03*
X16630Y8980D03*
Y8880D03*
X17390Y9730D03*
X17630Y8820D03*
Y8920D03*
X17690Y9630D03*
X17590D03*
X17490D03*
X17690Y9730D03*
X17590D03*
X17490D03*
X17790Y9630D03*
Y9730D03*
X18290Y8930D03*
X18190D03*
X18520D03*
X18420D03*
G54D26*
X18590Y6500D03*
Y7700D03*
Y8540D03*
Y9720D03*
G54D17*
X16330Y8880D03*
X17390Y9630D03*
G54D27*
G01X16100Y9900D02*
X18740D01*
Y6340D01*
X16100D01*
Y9900D01*
G54D18*
X16300Y9300D03*
Y9650D03*
G54D19*
X16790Y9223D03*
Y9577D03*
X17010Y9223D03*
X16990D03*
X16970D03*
X16950D03*
X16930D03*
X16910D03*
X16890D03*
X16870D03*
X16850D03*
X16830D03*
X16810D03*
Y9577D03*
X16830D03*
X16850D03*
X16870D03*
X16890D03*
X16910D03*
X16930D03*
X16950D03*
X16970D03*
X16990D03*
X17010D03*
M02*
