G04 ================== begin FILE IDENTIFICATION RECORD ==================*
G04 Layout Name:  controller.brd*
G04 Film Name:    sst*
G04 File Format:  Gerber RS274X*
G04 File Origin:  Cadence Allegro 16.3-p003*
G04 Origin Date:  Wed Apr 29 14:54:59 2015*
G04 *
G04 Layer:  BOARD GEOMETRY/OUTLINE*
G04 Layer:  PACKAGE GEOMETRY/SILKSCREEN_TOP*
G04 Layer:  REF DES/SILKSCREEN_TOP*
G04 *
G04 Offset:    (0.00 0.00)*
G04 Mirror:    No*
G04 Mode:      Positive*
G04 Rotation:  0*
G04 FullContactRelief:  No*
G04 UndefLineWidth:     0.00*
G04 ================== end FILE IDENTIFICATION RECORD ====================*
%FSLAX53Y53*MOIN*%
%IR0*IPPOS*OFA0.00000B0.00000*MIA0B0*SFA1.00000B1.00000*%
%ADD10C,.01*%
%ADD11C,.00039*%
%ADD12C,.001*%
%ADD13C,.003*%
%ADD14C,.005*%
%ADD15C,.00787*%
G75*
%LPD*%
G75*
G54D10*
G01X16100Y9900D02*
X18740D01*
Y6340D01*
X16100D01*
Y9900D01*
G01X16565Y8440D02*
Y7840D01*
X16165D01*
Y8440D01*
X16565D01*
G01X16905Y9080D02*
X16155D01*
Y8780D01*
X16905D01*
Y9080D01*
G01X17965Y9830D02*
X17215D01*
Y9530D01*
X17965D01*
Y9830D01*
G01X18555Y8330D02*
Y7930D01*
X18180D01*
Y8330D01*
X18555D01*
G01X18040Y9845D02*
X18440D01*
Y9470D01*
X18040D01*
Y9845D01*
G54D11*
G01X17635Y6725D02*
Y7110D01*
X17640Y7115D01*
X18005D01*
Y6685D01*
X17645D01*
X17635Y6695D01*
Y6725D01*
G01X17645Y7325D02*
Y7710D01*
X17650Y7715D01*
X18015D01*
Y7285D01*
X17655D01*
X17645Y7295D01*
Y7325D01*
G01X17655Y7995D02*
Y8380D01*
X17660Y8385D01*
X18025D01*
Y7955D01*
X17665D01*
X17655Y7965D01*
Y7995D01*
G01X18195Y6725D02*
Y7110D01*
X18200Y7115D01*
X18565D01*
Y6685D01*
X18205D01*
X18195Y6695D01*
Y6725D01*
G01X18175Y9435D02*
X18560D01*
X18565Y9430D01*
Y9065D01*
X18135D01*
Y9425D01*
X18145Y9435D01*
X18175D01*
G54D12*
G01X17770Y9495D02*
Y9445D01*
X17855D01*
Y9495D01*
X17770D01*
G54D13*
G01X16250Y9425D02*
X16350D01*
Y9200D01*
X16425D01*
Y9750D01*
X16350D01*
Y9525D01*
X16250D01*
Y9750D01*
X16175D01*
Y9200D01*
X16250D01*
Y9425D01*
G54D14*
G01X16200Y6960D02*
X16160Y6920D01*
Y6790D01*
X16300D01*
Y6920D01*
X16260Y6960D01*
X16200D01*
G01Y7590D02*
X16160Y7550D01*
Y7420D01*
X16300D01*
Y7550D01*
X16260Y7590D01*
X16200D01*
G01X16350Y8720D02*
Y8540D01*
X16590D01*
Y8720D01*
X16350D01*
G01X16860Y8460D02*
Y8280D01*
X17100D01*
Y8460D01*
X16860D01*
G01X17040Y8890D02*
Y8710D01*
X17280D01*
Y8890D01*
X17040D01*
G54D15*
G01X16230Y8579D02*
X16170D01*
Y8591D01*
X16173Y8595D01*
X16177Y8598D01*
X16185Y8598D01*
X16193Y8598D01*
X16198Y8595D01*
X16201Y8591D01*
Y8579D01*
G01Y8591D02*
X16230Y8598D01*
G01X16180Y8621D02*
X16174Y8624D01*
X16171Y8627D01*
X16170Y8631D01*
X16172Y8636D01*
X16177Y8639D01*
X16183Y8640D01*
X16189Y8640D01*
X16194Y8638D01*
X16204Y8628D01*
X16211Y8624D01*
X16221Y8621D01*
X16230Y8620D01*
Y8640D01*
G01Y8670D02*
X16217Y8671D01*
X16206Y8673D01*
X16196Y8675D01*
X16185Y8677D01*
X16170Y8681D01*
Y8661D01*
G01X16237Y8561D02*
Y8699D01*
X16163D01*
Y8561D01*
X16237D01*
G01X16460Y7785D02*
X16457Y7788D01*
X16454Y7790D01*
X16450D01*
X16445Y7787D01*
X16442Y7782D01*
X16439Y7776D01*
X16438Y7766D01*
X16437Y7757D01*
X16438Y7748D01*
X16439Y7742D01*
X16442Y7736D01*
X16446Y7732D01*
X16449Y7730D01*
X16453D01*
X16456Y7732D01*
X16459Y7735D01*
X16462Y7739D01*
G01X16491Y7730D02*
X16494Y7731D01*
X16498Y7734D01*
X16501Y7739D01*
X16501Y7746D01*
X16501Y7753D01*
X16498Y7759D01*
X16493Y7762D01*
X16488D01*
X16485Y7764D01*
X16483Y7769D01*
X16482Y7776D01*
X16483Y7783D01*
X16487Y7788D01*
X16491Y7790D01*
X16495Y7788D01*
X16498Y7783D01*
X16500Y7776D01*
X16499Y7769D01*
X16496Y7764D01*
X16493Y7762D01*
X16488D01*
X16484Y7759D01*
X16481Y7753D01*
X16480Y7746D01*
X16481Y7739D01*
X16483Y7734D01*
X16487Y7731D01*
X16491Y7730D01*
G01X16401Y7721D02*
X16539D01*
Y7799D01*
X16401D01*
Y7721D01*
G01X16320Y7735D02*
X16323Y7732D01*
X16326Y7730D01*
X16330D01*
X16335Y7733D01*
X16338Y7738D01*
X16341Y7744D01*
X16342Y7754D01*
X16343Y7763D01*
X16342Y7772D01*
X16341Y7778D01*
X16338Y7784D01*
X16334Y7788D01*
X16331Y7790D01*
X16327D01*
X16324Y7788D01*
X16321Y7785D01*
X16318Y7781D01*
G01X16298Y7783D02*
X16294Y7788D01*
X16290Y7790D01*
X16286Y7788D01*
X16283Y7782D01*
X16280Y7773D01*
X16279Y7764D01*
Y7753D01*
X16280Y7744D01*
X16283Y7736D01*
X16286Y7732D01*
X16289Y7730D01*
X16293Y7732D01*
X16296Y7736D01*
X16298Y7742D01*
X16299Y7750D01*
X16298Y7757D01*
X16296Y7764D01*
X16293Y7768D01*
X16289Y7769D01*
X16285Y7767D01*
X16282Y7762D01*
X16279Y7753D01*
G01X16379Y7799D02*
X16241D01*
Y7721D01*
X16379D01*
Y7799D01*
G01X16475Y9230D02*
X16472Y9227D01*
X16470Y9224D01*
Y9220D01*
X16473Y9215D01*
X16478Y9212D01*
X16484Y9209D01*
X16494Y9208D01*
X16503Y9207D01*
X16512Y9208D01*
X16518Y9209D01*
X16524Y9212D01*
X16528Y9216D01*
X16530Y9219D01*
Y9223D01*
X16528Y9226D01*
X16525Y9229D01*
X16521Y9232D01*
G01X16530Y9261D02*
X16470D01*
X16482Y9255D01*
G01X16530D02*
Y9267D01*
G01X16539Y9171D02*
Y9309D01*
X16461D01*
Y9171D01*
X16539D01*
G01X16475Y9590D02*
X16472Y9587D01*
X16470Y9584D01*
Y9580D01*
X16473Y9575D01*
X16478Y9572D01*
X16484Y9569D01*
X16494Y9568D01*
X16503Y9567D01*
X16512Y9568D01*
X16518Y9569D01*
X16524Y9572D01*
X16528Y9576D01*
X16530Y9579D01*
Y9583D01*
X16528Y9586D01*
X16525Y9589D01*
X16521Y9592D01*
G01Y9610D02*
X16526Y9613D01*
X16529Y9616D01*
X16530Y9621D01*
X16528Y9625D01*
X16524Y9629D01*
X16517Y9631D01*
X16509Y9631D01*
X16501Y9631D01*
X16496Y9628D01*
X16492Y9625D01*
X16491Y9621D01*
X16492Y9618D01*
X16496Y9613D01*
X16470Y9615D01*
Y9628D01*
G01X16539Y9531D02*
Y9669D01*
X16461D01*
Y9531D01*
X16539D01*
G01X16525Y9430D02*
X16528Y9433D01*
X16530Y9436D01*
Y9440D01*
X16527Y9445D01*
X16522Y9448D01*
X16516Y9451D01*
X16506Y9452D01*
X16497Y9453D01*
X16488Y9452D01*
X16482Y9451D01*
X16476Y9448D01*
X16472Y9444D01*
X16470Y9441D01*
Y9437D01*
X16472Y9434D01*
X16475Y9431D01*
X16479Y9428D01*
G01X16495Y9409D02*
X16502Y9405D01*
X16506Y9402D01*
X16508Y9398D01*
X16506Y9395D01*
X16502Y9392D01*
X16496Y9390D01*
X16489Y9390D01*
X16483Y9390D01*
X16477Y9392D01*
X16472Y9395D01*
X16470Y9399D01*
X16472Y9403D01*
X16478Y9406D01*
X16487Y9408D01*
X16497Y9409D01*
X16510Y9408D01*
X16517Y9406D01*
X16524Y9404D01*
X16529Y9400D01*
X16530Y9397D01*
X16528Y9393D01*
X16523Y9391D01*
G01X16461Y9489D02*
Y9351D01*
X16539D01*
Y9489D01*
X16461D01*
G01X16739Y6885D02*
X16737Y6888D01*
X16733Y6890D01*
X16729D01*
X16725Y6887D01*
X16721Y6882D01*
X16719Y6876D01*
X16717Y6866D01*
X16716Y6857D01*
X16717Y6848D01*
X16719Y6842D01*
X16722Y6836D01*
X16725Y6832D01*
X16729Y6830D01*
X16732D01*
X16736Y6832D01*
X16739Y6835D01*
X16741Y6839D01*
G01X16770Y6830D02*
Y6890D01*
X16764Y6878D01*
G01Y6830D02*
X16776D01*
G01X16817D02*
Y6890D01*
X16799Y6847D01*
X16824D01*
G01X16701Y6821D02*
X16839D01*
Y6899D01*
X16701D01*
Y6821D01*
G01X16709Y7525D02*
X16707Y7528D01*
X16703Y7530D01*
X16699D01*
X16695Y7527D01*
X16691Y7522D01*
X16689Y7516D01*
X16687Y7506D01*
X16686Y7497D01*
X16687Y7488D01*
X16689Y7482D01*
X16692Y7476D01*
X16695Y7472D01*
X16699Y7470D01*
X16702D01*
X16706Y7472D01*
X16708Y7475D01*
X16711Y7479D01*
G01X16740Y7470D02*
Y7530D01*
X16734Y7518D01*
G01Y7470D02*
X16746D01*
G01X16771Y7479D02*
X16773Y7474D01*
X16777Y7471D01*
X16781Y7470D01*
X16786Y7472D01*
X16789Y7476D01*
X16792Y7483D01*
X16792Y7491D01*
X16791Y7499D01*
X16789Y7504D01*
X16785Y7508D01*
X16782Y7509D01*
X16778Y7508D01*
X16774Y7504D01*
X16775Y7530D01*
X16789D01*
G01X16671Y7461D02*
X16809D01*
Y7539D01*
X16671D01*
Y7461D01*
G01X16650Y8261D02*
X16710D01*
Y8249D01*
X16707Y8245D01*
X16703Y8242D01*
X16695Y8242D01*
X16687Y8242D01*
X16682Y8245D01*
X16679Y8249D01*
Y8261D01*
G01Y8249D02*
X16650Y8242D01*
G01X16700Y8219D02*
X16706Y8216D01*
X16709Y8213D01*
X16710Y8209D01*
X16708Y8204D01*
X16703Y8201D01*
X16697Y8200D01*
X16691Y8200D01*
X16686Y8202D01*
X16676Y8212D01*
X16669Y8216D01*
X16659Y8219D01*
X16650Y8220D01*
Y8200D01*
G01Y8163D02*
X16710D01*
X16667Y8181D01*
Y8156D01*
G01X16643Y8279D02*
Y8141D01*
X16717D01*
Y8279D01*
X16643D01*
G01X16639Y8360D02*
Y8420D01*
X16651D01*
X16655Y8417D01*
X16658Y8413D01*
X16658Y8405D01*
X16658Y8397D01*
X16655Y8392D01*
X16651Y8389D01*
X16639D01*
G01X16651D02*
X16658Y8360D01*
G01X16681Y8410D02*
X16684Y8416D01*
X16687Y8419D01*
X16691Y8420D01*
X16696Y8418D01*
X16699Y8413D01*
X16700Y8407D01*
X16700Y8401D01*
X16698Y8396D01*
X16688Y8386D01*
X16684Y8379D01*
X16681Y8369D01*
X16680Y8360D01*
X16700D01*
G01X16721Y8369D02*
X16723Y8364D01*
X16727Y8361D01*
X16731Y8360D01*
X16736Y8362D01*
X16739Y8366D01*
X16742Y8373D01*
X16742Y8381D01*
X16741Y8389D01*
X16739Y8394D01*
X16735Y8398D01*
X16732Y8399D01*
X16728Y8398D01*
X16724Y8394D01*
X16725Y8420D01*
X16739D01*
G01X16621Y8353D02*
X16759D01*
Y8427D01*
X16621D01*
Y8353D01*
G01X16811Y8740D02*
Y8680D01*
X16799D01*
X16795Y8683D01*
X16792Y8687D01*
X16792Y8695D01*
X16792Y8703D01*
X16795Y8708D01*
X16799Y8711D01*
X16811D01*
G01X16799D02*
X16792Y8740D01*
G01X16769Y8690D02*
X16766Y8684D01*
X16763Y8681D01*
X16759Y8680D01*
X16754Y8682D01*
X16751Y8687D01*
X16750Y8693D01*
X16750Y8699D01*
X16752Y8704D01*
X16762Y8714D01*
X16766Y8721D01*
X16769Y8731D01*
X16770Y8740D01*
X16750D01*
G01X16727Y8733D02*
X16724Y8738D01*
X16720Y8740D01*
X16716Y8738D01*
X16712Y8732D01*
X16710Y8723D01*
X16709Y8714D01*
Y8703D01*
X16710Y8694D01*
X16712Y8686D01*
X16715Y8682D01*
X16719Y8680D01*
X16723Y8682D01*
X16726Y8686D01*
X16728Y8692D01*
X16729Y8700D01*
X16728Y8707D01*
X16725Y8714D01*
X16722Y8718D01*
X16719Y8719D01*
X16715Y8717D01*
X16712Y8712D01*
X16709Y8703D01*
G01X16829Y8747D02*
X16691D01*
Y8673D01*
X16829D01*
Y8747D01*
G01X16801Y8580D02*
Y8520D01*
X16789D01*
X16785Y8523D01*
X16782Y8527D01*
X16782Y8535D01*
X16782Y8543D01*
X16785Y8548D01*
X16789Y8551D01*
X16801D01*
G01X16789D02*
X16782Y8580D01*
G01X16759Y8530D02*
X16756Y8524D01*
X16753Y8521D01*
X16749Y8520D01*
X16744Y8522D01*
X16741Y8527D01*
X16740Y8533D01*
X16740Y8539D01*
X16742Y8544D01*
X16752Y8554D01*
X16756Y8561D01*
X16759Y8571D01*
X16760Y8580D01*
X16740D01*
G01X16709D02*
X16705Y8579D01*
X16701Y8576D01*
X16699Y8571D01*
X16698Y8564D01*
X16699Y8557D01*
X16702Y8551D01*
X16706Y8548D01*
X16711D01*
X16714Y8546D01*
X16717Y8541D01*
X16718Y8534D01*
X16716Y8527D01*
X16713Y8522D01*
X16709Y8520D01*
X16705Y8522D01*
X16701Y8527D01*
X16700Y8534D01*
X16701Y8541D01*
X16703Y8546D01*
X16706Y8548D01*
X16711D01*
X16716Y8551D01*
X16719Y8557D01*
X16719Y8564D01*
X16719Y8571D01*
X16716Y8576D01*
X16712Y8579D01*
X16709Y8580D01*
G01X16819Y8587D02*
X16681D01*
Y8513D01*
X16819D01*
Y8587D01*
G01X16690Y9725D02*
X16687Y9728D01*
X16684Y9730D01*
X16680D01*
X16675Y9727D01*
X16672Y9722D01*
X16669Y9716D01*
X16668Y9706D01*
X16667Y9697D01*
X16668Y9688D01*
X16669Y9682D01*
X16672Y9676D01*
X16676Y9672D01*
X16679Y9670D01*
X16683D01*
X16686Y9672D01*
X16689Y9675D01*
X16692Y9679D01*
G01X16711Y9720D02*
X16714Y9726D01*
X16718Y9729D01*
X16722Y9730D01*
X16727Y9728D01*
X16730Y9723D01*
X16731Y9717D01*
X16731Y9711D01*
X16729Y9706D01*
X16719Y9696D01*
X16714Y9689D01*
X16711Y9679D01*
X16710Y9670D01*
X16731D01*
G01X16631Y9661D02*
X16769D01*
Y9739D01*
X16631D01*
Y9661D01*
G01X17011Y8220D02*
Y8160D01*
X16999D01*
X16995Y8163D01*
X16992Y8167D01*
X16992Y8175D01*
X16992Y8183D01*
X16995Y8188D01*
X16999Y8191D01*
X17011D01*
G01X16999D02*
X16992Y8220D01*
G01X16969Y8170D02*
X16966Y8164D01*
X16963Y8161D01*
X16959Y8160D01*
X16954Y8162D01*
X16951Y8167D01*
X16950Y8173D01*
X16950Y8179D01*
X16952Y8184D01*
X16962Y8194D01*
X16966Y8201D01*
X16969Y8211D01*
X16970Y8220D01*
X16950D01*
G01X16928Y8195D02*
X16925Y8188D01*
X16922Y8184D01*
X16918Y8182D01*
X16914Y8184D01*
X16912Y8188D01*
X16910Y8194D01*
X16909Y8201D01*
X16910Y8207D01*
X16912Y8213D01*
X16915Y8218D01*
X16918Y8220D01*
X16922Y8218D01*
X16926Y8212D01*
X16928Y8203D01*
X16928Y8193D01*
X16927Y8180D01*
X16926Y8173D01*
X16923Y8166D01*
X16920Y8161D01*
X16916Y8160D01*
X16913Y8162D01*
X16910Y8167D01*
G01X17029Y8227D02*
X16891D01*
Y8153D01*
X17029D01*
Y8227D01*
G01X17010Y9065D02*
X17013Y9062D01*
X17016Y9060D01*
X17020D01*
X17025Y9063D01*
X17028Y9068D01*
X17031Y9074D01*
X17032Y9084D01*
X17033Y9093D01*
X17032Y9102D01*
X17031Y9108D01*
X17028Y9114D01*
X17024Y9118D01*
X17021Y9120D01*
X17017D01*
X17014Y9118D01*
X17011Y9115D01*
X17008Y9111D01*
G01X16973Y9120D02*
Y9060D01*
X16992Y9103D01*
X16967D01*
G01X17069Y9129D02*
X16931D01*
Y9051D01*
X17069D01*
Y9129D01*
G01X16869Y9670D02*
Y9730D01*
X16882D01*
X16886Y9727D01*
X16888Y9723D01*
X16889Y9715D01*
X16888Y9707D01*
X16885Y9702D01*
X16882Y9699D01*
X16869D01*
G01X16882D02*
X16889Y9670D01*
G01X16921D02*
Y9730D01*
X16915Y9718D01*
G01Y9670D02*
X16927D01*
G01X16831Y9663D02*
X16969D01*
Y9737D01*
X16831D01*
Y9663D01*
G01X17039Y9670D02*
Y9730D01*
X17051D01*
X17055Y9727D01*
X17058Y9723D01*
X17058Y9715D01*
X17058Y9707D01*
X17055Y9702D01*
X17051Y9699D01*
X17039D01*
G01X17051D02*
X17058Y9670D01*
G01X17090D02*
Y9730D01*
X17084Y9718D01*
G01Y9670D02*
X17096D01*
G01X17123Y9677D02*
X17126Y9672D01*
X17130Y9670D01*
X17134Y9672D01*
X17138Y9678D01*
X17140Y9687D01*
X17141Y9696D01*
Y9707D01*
X17140Y9716D01*
X17138Y9724D01*
X17135Y9728D01*
X17131Y9730D01*
X17127Y9728D01*
X17124Y9724D01*
X17122Y9718D01*
X17121Y9710D01*
X17122Y9703D01*
X17125Y9696D01*
X17128Y9692D01*
X17131Y9691D01*
X17135Y9693D01*
X17138Y9698D01*
X17141Y9707D01*
G01X17021Y9663D02*
X17159D01*
Y9737D01*
X17021D01*
Y9663D01*
G01X17169Y6550D02*
Y6610D01*
X17181D01*
X17185Y6607D01*
X17188Y6603D01*
X17188Y6595D01*
X17188Y6587D01*
X17185Y6582D01*
X17181Y6579D01*
X17169D01*
G01X17181D02*
X17188Y6550D01*
G01X17220D02*
Y6610D01*
X17214Y6598D01*
G01Y6550D02*
X17226D01*
G01X17251Y6559D02*
X17253Y6554D01*
X17257Y6551D01*
X17261Y6550D01*
X17266Y6552D01*
X17269Y6556D01*
X17272Y6563D01*
X17272Y6571D01*
X17271Y6579D01*
X17269Y6584D01*
X17265Y6588D01*
X17262Y6589D01*
X17258Y6588D01*
X17254Y6584D01*
X17255Y6610D01*
X17269D01*
G01X17151Y6543D02*
X17289D01*
Y6617D01*
X17151D01*
Y6543D01*
G01X17169Y7100D02*
Y7160D01*
X17181D01*
X17185Y7157D01*
X17188Y7153D01*
X17188Y7145D01*
X17188Y7137D01*
X17185Y7132D01*
X17181Y7129D01*
X17169D01*
G01X17181D02*
X17188Y7100D01*
G01X17220D02*
Y7160D01*
X17214Y7148D01*
G01Y7100D02*
X17226D01*
G01X17252Y7125D02*
X17255Y7132D01*
X17258Y7136D01*
X17262Y7138D01*
X17266Y7136D01*
X17268Y7132D01*
X17270Y7126D01*
X17271Y7119D01*
X17270Y7113D01*
X17268Y7107D01*
X17265Y7102D01*
X17262Y7100D01*
X17258Y7102D01*
X17254Y7108D01*
X17252Y7117D01*
X17252Y7127D01*
X17253Y7140D01*
X17254Y7147D01*
X17257Y7154D01*
X17260Y7159D01*
X17264Y7160D01*
X17267Y7158D01*
X17270Y7153D01*
G01X17151Y7093D02*
X17289D01*
Y7167D01*
X17151D01*
Y7093D01*
G01X17209Y7390D02*
Y7450D01*
X17221D01*
X17225Y7447D01*
X17228Y7443D01*
X17228Y7435D01*
X17228Y7427D01*
X17225Y7422D01*
X17221Y7419D01*
X17209D01*
G01X17221D02*
X17228Y7390D01*
G01X17260D02*
Y7450D01*
X17254Y7438D01*
G01Y7390D02*
X17266D01*
G01X17291Y7402D02*
X17293Y7395D01*
X17297Y7391D01*
X17302Y7390D01*
X17306Y7391D01*
X17310Y7396D01*
X17312Y7402D01*
X17313Y7408D01*
X17312Y7415D01*
X17308Y7420D01*
X17305Y7422D01*
X17300D01*
G01X17305D02*
X17308Y7425D01*
X17310Y7430D01*
X17311Y7436D01*
X17310Y7442D01*
X17308Y7447D01*
X17303Y7450D01*
X17299Y7449D01*
X17294Y7445D01*
G01X17191Y7383D02*
X17329D01*
Y7457D01*
X17191D01*
Y7383D01*
G01X17249Y7650D02*
Y7710D01*
X17261D01*
X17265Y7707D01*
X17268Y7703D01*
X17268Y7695D01*
X17268Y7687D01*
X17265Y7682D01*
X17261Y7679D01*
X17249D01*
G01X17261D02*
X17268Y7650D01*
G01X17300D02*
Y7710D01*
X17294Y7698D01*
G01Y7650D02*
X17306D01*
G01X17347D02*
Y7710D01*
X17329Y7667D01*
X17354D01*
G01X17231Y7643D02*
X17369D01*
Y7717D01*
X17231D01*
Y7643D01*
G01X17519Y8777D02*
X17381D01*
Y8703D01*
X17519D01*
Y8777D01*
G01X17501Y8770D02*
Y8710D01*
X17489D01*
X17485Y8713D01*
X17482Y8717D01*
X17482Y8725D01*
X17482Y8733D01*
X17485Y8738D01*
X17489Y8741D01*
X17501D01*
G01X17489D02*
X17482Y8770D01*
G01X17461Y8758D02*
X17458Y8765D01*
X17454Y8769D01*
X17450Y8770D01*
X17446Y8769D01*
X17442Y8764D01*
X17439Y8758D01*
X17439Y8752D01*
X17440Y8745D01*
X17443Y8740D01*
X17447Y8738D01*
X17451D01*
G01X17447D02*
X17444Y8735D01*
X17441Y8730D01*
X17440Y8724D01*
X17441Y8718D01*
X17444Y8713D01*
X17448Y8710D01*
X17452Y8711D01*
X17457Y8715D01*
G01X17409Y8710D02*
X17413Y8712D01*
X17416Y8717D01*
X17418Y8723D01*
X17419Y8731D01*
X17419Y8740D01*
X17419Y8749D01*
X17418Y8757D01*
X17416Y8763D01*
X17413Y8768D01*
X17409Y8770D01*
X17405Y8768D01*
X17402Y8763D01*
X17400Y8757D01*
X17398Y8749D01*
X17398Y8740D01*
X17398Y8731D01*
X17400Y8723D01*
X17402Y8717D01*
X17405Y8712D01*
X17409Y8710D01*
G01X17290Y9495D02*
X17287Y9498D01*
X17284Y9500D01*
X17280D01*
X17275Y9497D01*
X17272Y9492D01*
X17269Y9486D01*
X17268Y9476D01*
X17267Y9467D01*
X17268Y9458D01*
X17269Y9452D01*
X17272Y9446D01*
X17276Y9442D01*
X17279Y9440D01*
X17283D01*
X17286Y9442D01*
X17289Y9445D01*
X17292Y9449D01*
G01X17310Y9452D02*
X17313Y9445D01*
X17317Y9441D01*
X17321Y9440D01*
X17325Y9441D01*
X17329Y9446D01*
X17331Y9452D01*
X17332Y9458D01*
X17331Y9465D01*
X17328Y9470D01*
X17324Y9472D01*
X17320D01*
G01X17324D02*
X17327Y9475D01*
X17330Y9480D01*
X17331Y9486D01*
X17330Y9492D01*
X17327Y9497D01*
X17323Y9500D01*
X17318Y9499D01*
X17314Y9495D01*
G01X17231Y9431D02*
X17369D01*
Y9509D01*
X17231D01*
Y9431D01*
G01X17720Y6913D02*
X17721Y6916D01*
X17724Y6919D01*
X17729Y6921D01*
X17735Y6923D01*
X17741Y6924D01*
X17748D01*
X17754Y6923D01*
X17760Y6921D01*
X17765Y6919D01*
X17768Y6916D01*
X17769Y6913D01*
X17768Y6909D01*
X17765Y6907D01*
X17760Y6904D01*
X17754Y6902D01*
X17748Y6902D01*
X17741D01*
X17735Y6902D01*
X17729Y6904D01*
X17724Y6907D01*
X17721Y6909D01*
X17720Y6913D01*
G01X17733Y6909D02*
X17720Y6904D01*
G01X17730Y6887D02*
X17724Y6885D01*
X17721Y6882D01*
X17720Y6878D01*
X17721Y6875D01*
X17725Y6871D01*
X17730Y6869D01*
X17735Y6869D01*
X17740Y6870D01*
X17745Y6873D01*
X17746Y6875D01*
Y6879D01*
G01Y6875D02*
X17749Y6873D01*
X17753Y6871D01*
X17758Y6870D01*
X17763Y6871D01*
X17767Y6873D01*
X17769Y6877D01*
X17768Y6880D01*
X17765Y6884D01*
G01X17685Y6710D02*
Y7090D01*
G01X17845Y7090D02*
X17655D01*
Y6710D01*
X17845D01*
Y7090D01*
G01X17695Y7310D02*
Y7690D01*
G01X17855Y7690D02*
X17665D01*
Y7310D01*
X17855D01*
Y7690D01*
G01X17865Y8360D02*
X17675D01*
Y7980D01*
X17865D01*
Y8360D01*
G01X17569Y9440D02*
Y9500D01*
X17581D01*
X17585Y9497D01*
X17588Y9493D01*
X17588Y9485D01*
X17588Y9477D01*
X17585Y9472D01*
X17581Y9469D01*
X17569D01*
G01X17581D02*
X17588Y9440D01*
G01X17620D02*
Y9500D01*
X17614Y9488D01*
G01Y9440D02*
X17626D01*
G01X17652Y9490D02*
X17655Y9496D01*
X17658Y9499D01*
X17662Y9500D01*
X17667Y9498D01*
X17671Y9493D01*
X17672Y9487D01*
X17671Y9481D01*
X17669Y9476D01*
X17659Y9466D01*
X17655Y9459D01*
X17652Y9449D01*
X17651Y9440D01*
X17672D01*
G01X17551Y9433D02*
X17689D01*
Y9507D01*
X17551D01*
Y9433D01*
G01X17730Y7513D02*
X17731Y7516D01*
X17734Y7519D01*
X17739Y7521D01*
X17745Y7523D01*
X17751Y7524D01*
X17758D01*
X17764Y7523D01*
X17770Y7521D01*
X17775Y7519D01*
X17778Y7516D01*
X17779Y7513D01*
X17778Y7509D01*
X17775Y7507D01*
X17770Y7504D01*
X17764Y7502D01*
X17758Y7502D01*
X17751D01*
X17745Y7502D01*
X17739Y7504D01*
X17734Y7507D01*
X17731Y7509D01*
X17730Y7513D01*
G01X17743Y7509D02*
X17730Y7504D01*
G01Y7478D02*
X17779D01*
X17769Y7483D01*
G01X17730D02*
Y7473D01*
G01X17705Y7980D02*
Y8360D01*
G01X17740Y8183D02*
X17741Y8186D01*
X17744Y8189D01*
X17749Y8191D01*
X17755Y8193D01*
X17761Y8194D01*
X17768D01*
X17774Y8193D01*
X17780Y8191D01*
X17785Y8189D01*
X17788Y8186D01*
X17789Y8183D01*
X17788Y8179D01*
X17785Y8177D01*
X17780Y8174D01*
X17774Y8172D01*
X17768Y8172D01*
X17761D01*
X17755Y8172D01*
X17749Y8174D01*
X17744Y8177D01*
X17741Y8179D01*
X17740Y8183D01*
G01X17753Y8179D02*
X17740Y8174D01*
G01X17781Y8156D02*
X17786Y8154D01*
X17788Y8151D01*
X17789Y8147D01*
X17788Y8143D01*
X17783Y8140D01*
X17779Y8140D01*
X17774Y8140D01*
X17770Y8142D01*
X17761Y8150D01*
X17756Y8154D01*
X17747Y8156D01*
X17740Y8157D01*
Y8140D01*
G01X17967Y8932D02*
X17925D01*
X17916Y8930D01*
X17910Y8926D01*
X17908Y8921D01*
X17910Y8916D01*
X17916Y8912D01*
X17925Y8910D01*
X17967D01*
G01X17908Y8880D02*
X17921Y8880D01*
X17932Y8878D01*
X17942Y8876D01*
X17953Y8874D01*
X17967Y8870D01*
Y8889D01*
G01X18097Y9052D02*
X17763D01*
Y8768D01*
X18097D01*
Y9052D01*
G01X17957Y9252D02*
X17915D01*
X17906Y9250D01*
X17900Y9246D01*
X17898Y9241D01*
X17900Y9236D01*
X17906Y9232D01*
X17915Y9230D01*
X17957D01*
G01X17923Y9209D02*
X17930Y9205D01*
X17934Y9202D01*
X17936Y9199D01*
X17934Y9195D01*
X17930Y9193D01*
X17924Y9191D01*
X17917Y9190D01*
X17911Y9191D01*
X17905Y9193D01*
X17900Y9196D01*
X17898Y9199D01*
X17900Y9203D01*
X17906Y9206D01*
X17915Y9208D01*
X17925Y9209D01*
X17938Y9208D01*
X17945Y9206D01*
X17952Y9204D01*
X17956Y9200D01*
X17957Y9197D01*
X17955Y9194D01*
X17951Y9191D01*
G01X18087Y9372D02*
X17753D01*
Y9088D01*
X18087D01*
Y9372D01*
G01X18280Y6913D02*
X18281Y6916D01*
X18284Y6919D01*
X18289Y6921D01*
X18295Y6923D01*
X18301Y6924D01*
X18308D01*
X18314Y6923D01*
X18320Y6921D01*
X18325Y6919D01*
X18328Y6916D01*
X18329Y6913D01*
X18328Y6909D01*
X18325Y6907D01*
X18320Y6904D01*
X18314Y6902D01*
X18308Y6902D01*
X18301D01*
X18295Y6902D01*
X18289Y6904D01*
X18284Y6907D01*
X18281Y6909D01*
X18280Y6913D01*
G01X18293Y6909D02*
X18280Y6904D01*
G01Y6873D02*
X18329D01*
X18294Y6889D01*
Y6868D01*
G01X18245Y6710D02*
Y7090D01*
G01X18405Y7090D02*
X18215D01*
Y6710D01*
X18405D01*
Y7090D01*
G01X18540Y9225D02*
Y9415D01*
X18160D01*
Y9225D01*
X18540D01*
G01X18160Y9385D02*
X18540D01*
G01X18372Y9301D02*
Y9336D01*
X18370Y9343D01*
X18367Y9348D01*
X18363Y9350D01*
X18359Y9348D01*
X18355Y9343D01*
X18354Y9336D01*
Y9301D01*
G01X18337Y9343D02*
X18335Y9347D01*
X18332Y9349D01*
X18328Y9350D01*
X18325Y9348D01*
X18322Y9345D01*
X18320Y9339D01*
X18319Y9333D01*
X18320Y9326D01*
X18322Y9322D01*
X18325Y9319D01*
X18328Y9318D01*
X18331Y9319D01*
X18334Y9322D01*
X18333Y9301D01*
X18322D01*
M02*
