G04 ================== begin FILE IDENTIFICATION RECORD ==================*
G04 Layout Name:  controller.brd*
G04 Film Name:    drill*
G04 File Format:  Gerber RS274X*
G04 File Origin:  Cadence Allegro 16.3-p003*
G04 Origin Date:  Wed Apr 29 14:54:59 2015*
G04 *
G04 Layer:  MANUFACTURING/NCLEGEND-1-2*
G04 Layer:  BOARD GEOMETRY/OUTLINE*
G04 *
G04 Offset:    (0.00 0.00)*
G04 Mirror:    No*
G04 Mode:      Positive*
G04 Rotation:  0*
G04 FullContactRelief:  No*
G04 UndefLineWidth:     0.00*
G04 ================== end FILE IDENTIFICATION RECORD ====================*
%FSLAX53Y53*MOIN*%
%IR0*IPPOS*OFA0.00000B0.00000*MIA0B0*SFA1.00000B1.00000*%
%AMMACRO14*
1,1,0.0,.005,.005*
20,1,0.0,.005,.005,.005,-.005,0.0*
1,1,0.0,.005,-.005*
20,1,0.0,.005,-.005,-.005,-.005,0.0*
1,1,0.0,-.005,-.005*
20,1,0.0,-.005,-.005,-.005,.005,0.0*
1,1,0.0,-.005,.005*
20,1,0.0,-.005,.005,.005,.005,0.0*
1,1,0.0,.005,.005*
%
%ADD14MACRO14*%
%AMMACRO12*
1,1,0.0,.015,0.0*
20,1,0.0,.015,0.0,.014772,-.002605,0.0*
1,1,0.0,.014772,-.002605*
20,1,0.0,.014772,-.002605,.014095,-.00513,0.0*
1,1,0.0,.014095,-.00513*
20,1,0.0,.014095,-.00513,.01299,-.0075,0.0*
1,1,0.0,.01299,-.0075*
20,1,0.0,.01299,-.0075,.011491,-.009642,0.0*
1,1,0.0,.011491,-.009642*
20,1,0.0,.011491,-.009642,.009642,-.011491,0.0*
1,1,0.0,.009642,-.011491*
20,1,0.0,.009642,-.011491,.0075,-.01299,0.0*
1,1,0.0,.0075,-.01299*
20,1,0.0,.0075,-.01299,.00513,-.014095,0.0*
1,1,0.0,.00513,-.014095*
20,1,0.0,.00513,-.014095,.002605,-.014772,0.0*
1,1,0.0,.002605,-.014772*
20,1,0.0,.002605,-.014772,0.0,-.015,0.0*
1,1,0.0,0.0,-.015*
20,1,0.0,0.0,-.015,-.002605,-.014772,0.0*
1,1,0.0,-.002605,-.014772*
20,1,0.0,-.002605,-.014772,-.00513,-.014095,0.0*
1,1,0.0,-.00513,-.014095*
20,1,0.0,-.00513,-.014095,-.0075,-.01299,0.0*
1,1,0.0,-.0075,-.01299*
20,1,0.0,-.0075,-.01299,-.009642,-.011491,0.0*
1,1,0.0,-.009642,-.011491*
20,1,0.0,-.009642,-.011491,-.011491,-.009642,0.0*
1,1,0.0,-.011491,-.009642*
20,1,0.0,-.011491,-.009642,-.01299,-.0075,0.0*
1,1,0.0,-.01299,-.0075*
20,1,0.0,-.01299,-.0075,-.014095,-.00513,0.0*
1,1,0.0,-.014095,-.00513*
20,1,0.0,-.014095,-.00513,-.014772,-.002605,0.0*
1,1,0.0,-.014772,-.002605*
20,1,0.0,-.014772,-.002605,-.015,0.0,0.0*
1,1,0.0,-.015,0.0*
20,1,0.0,-.015,0.0,-.014772,.002605,0.0*
1,1,0.0,-.014772,.002605*
20,1,0.0,-.014772,.002605,-.014095,.00513,0.0*
1,1,0.0,-.014095,.00513*
20,1,0.0,-.014095,.00513,-.01299,.0075,0.0*
1,1,0.0,-.01299,.0075*
20,1,0.0,-.01299,.0075,-.011491,.009642,0.0*
1,1,0.0,-.011491,.009642*
20,1,0.0,-.011491,.009642,-.009642,.011491,0.0*
1,1,0.0,-.009642,.011491*
20,1,0.0,-.009642,.011491,-.0075,.01299,0.0*
1,1,0.0,-.0075,.01299*
20,1,0.0,-.0075,.01299,-.00513,.014095,0.0*
1,1,0.0,-.00513,.014095*
20,1,0.0,-.00513,.014095,-.002605,.014772,0.0*
1,1,0.0,-.002605,.014772*
20,1,0.0,-.002605,.014772,0.0,.015,0.0*
1,1,0.0,0.0,.015*
20,1,0.0,0.0,.015,.002605,.014772,0.0*
1,1,0.0,.002605,.014772*
20,1,0.0,.002605,.014772,.00513,.014095,0.0*
1,1,0.0,.00513,.014095*
20,1,0.0,.00513,.014095,.0075,.01299,0.0*
1,1,0.0,.0075,.01299*
20,1,0.0,.0075,.01299,.009642,.011491,0.0*
1,1,0.0,.009642,.011491*
20,1,0.0,.009642,.011491,.011491,.009642,0.0*
1,1,0.0,.011491,.009642*
20,1,0.0,.011491,.009642,.01299,.0075,0.0*
1,1,0.0,.01299,.0075*
20,1,0.0,.01299,.0075,.014095,.00513,0.0*
1,1,0.0,.014095,.00513*
20,1,0.0,.014095,.00513,.014772,.002605,0.0*
1,1,0.0,.014772,.002605*
20,1,0.0,.014772,.002605,.015,0.0,0.0*
1,1,0.0,.015,0.0*
%
%ADD12MACRO12*%
%AMMACRO18*
1,1,0.0,.0615,0.0*
20,1,0.0,.0615,0.0,.060566,-.010679,0.0*
1,1,0.0,.060566,-.010679*
20,1,0.0,.060566,-.010679,.057791,-.021034,0.0*
1,1,0.0,.057791,-.021034*
20,1,0.0,.057791,-.021034,.053261,-.03075,0.0*
1,1,0.0,.053261,-.03075*
20,1,0.0,.053261,-.03075,.047112,-.039531,0.0*
1,1,0.0,.047112,-.039531*
20,1,0.0,.047112,-.039531,.039531,-.047112,0.0*
1,1,0.0,.039531,-.047112*
20,1,0.0,.039531,-.047112,.03075,-.053261,0.0*
1,1,0.0,.03075,-.053261*
20,1,0.0,.03075,-.053261,.021034,-.057791,0.0*
1,1,0.0,.021034,-.057791*
20,1,0.0,.021034,-.057791,.010679,-.060566,0.0*
1,1,0.0,.010679,-.060566*
20,1,0.0,.010679,-.060566,0.0,-.0615,0.0*
1,1,0.0,0.0,-.0615*
20,1,0.0,0.0,-.0615,-.010679,-.060566,0.0*
1,1,0.0,-.010679,-.060566*
20,1,0.0,-.010679,-.060566,-.021034,-.057791,0.0*
1,1,0.0,-.021034,-.057791*
20,1,0.0,-.021034,-.057791,-.03075,-.053261,0.0*
1,1,0.0,-.03075,-.053261*
20,1,0.0,-.03075,-.053261,-.039531,-.047112,0.0*
1,1,0.0,-.039531,-.047112*
20,1,0.0,-.039531,-.047112,-.047112,-.039531,0.0*
1,1,0.0,-.047112,-.039531*
20,1,0.0,-.047112,-.039531,-.053261,-.03075,0.0*
1,1,0.0,-.053261,-.03075*
20,1,0.0,-.053261,-.03075,-.057791,-.021034,0.0*
1,1,0.0,-.057791,-.021034*
20,1,0.0,-.057791,-.021034,-.060566,-.010679,0.0*
1,1,0.0,-.060566,-.010679*
20,1,0.0,-.060566,-.010679,-.0615,0.0,0.0*
1,1,0.0,-.0615,0.0*
20,1,0.0,-.0615,0.0,-.060566,.010679,0.0*
1,1,0.0,-.060566,.010679*
20,1,0.0,-.060566,.010679,-.057791,.021034,0.0*
1,1,0.0,-.057791,.021034*
20,1,0.0,-.057791,.021034,-.053261,.03075,0.0*
1,1,0.0,-.053261,.03075*
20,1,0.0,-.053261,.03075,-.047112,.039531,0.0*
1,1,0.0,-.047112,.039531*
20,1,0.0,-.047112,.039531,-.039531,.047112,0.0*
1,1,0.0,-.039531,.047112*
20,1,0.0,-.039531,.047112,-.03075,.053261,0.0*
1,1,0.0,-.03075,.053261*
20,1,0.0,-.03075,.053261,-.021034,.057791,0.0*
1,1,0.0,-.021034,.057791*
20,1,0.0,-.021034,.057791,-.010679,.060566,0.0*
1,1,0.0,-.010679,.060566*
20,1,0.0,-.010679,.060566,0.0,.0615,0.0*
1,1,0.0,0.0,.0615*
20,1,0.0,0.0,.0615,.010679,.060566,0.0*
1,1,0.0,.010679,.060566*
20,1,0.0,.010679,.060566,.021034,.057791,0.0*
1,1,0.0,.021034,.057791*
20,1,0.0,.021034,.057791,.03075,.053261,0.0*
1,1,0.0,.03075,.053261*
20,1,0.0,.03075,.053261,.039531,.047112,0.0*
1,1,0.0,.039531,.047112*
20,1,0.0,.039531,.047112,.047112,.039531,0.0*
1,1,0.0,.047112,.039531*
20,1,0.0,.047112,.039531,.053261,.03075,0.0*
1,1,0.0,.053261,.03075*
20,1,0.0,.053261,.03075,.057791,.021034,0.0*
1,1,0.0,.057791,.021034*
20,1,0.0,.057791,.021034,.060566,.010679,0.0*
1,1,0.0,.060566,.010679*
20,1,0.0,.060566,.010679,.0615,0.0,0.0*
1,1,0.0,.0615,0.0*
%
%ADD18MACRO18*%
%AMMACRO10*
1,1,0.0,.03,0.0*
20,1,0.0,.03,0.0,-.03,0.0,0.0*
1,1,0.0,-.03,0.0*
1,1,0.0,0.0,.03*
20,1,0.0,0.0,.03,0.0,-.03,0.0*
1,1,0.0,0.0,-.03*
%
%ADD10MACRO10*%
%AMMACRO15*
1,1,0.0,.0125,0.0*
20,1,0.0,.0125,0.0,-.0125,0.0,0.0*
1,1,0.0,-.0125,0.0*
1,1,0.0,0.0,.0125*
20,1,0.0,0.0,.0125,0.0,-.0125,0.0*
1,1,0.0,0.0,-.0125*
%
%ADD15MACRO15*%
%AMMACRO11*
1,1,0.0,.014,0.0*
20,1,0.0,.014,0.0,-.014,0.0,0.0*
1,1,0.0,-.014,0.0*
1,1,0.0,0.0,.014*
20,1,0.0,0.0,.014,0.0,-.014,0.0*
1,1,0.0,0.0,-.014*
%
%ADD11MACRO11*%
%AMMACRO17*
1,1,0.0,.014678,-.035435*
20,1,0.0,.014678,-.035435,-.014678,-.035435,0.0*
1,1,0.0,-.014678,-.035435*
20,1,0.0,-.014678,-.035435,-.035435,-.014678,0.0*
1,1,0.0,-.035435,-.014678*
20,1,0.0,-.035435,-.014678,-.035435,.014678,0.0*
1,1,0.0,-.035435,.014678*
20,1,0.0,-.035435,.014678,-.014678,.035435,0.0*
1,1,0.0,-.014678,.035435*
20,1,0.0,-.014678,.035435,.014678,.035435,0.0*
1,1,0.0,.014678,.035435*
20,1,0.0,.014678,.035435,.035435,.014678,0.0*
1,1,0.0,.035435,.014678*
20,1,0.0,.035435,.014678,.035435,-.014678,0.0*
1,1,0.0,.035435,-.014678*
20,1,0.0,.035435,-.014678,.014678,-.035435,0.0*
1,1,0.0,.014678,-.035435*
1,1,0.0,-.01299,.00119*
20,1,0.0,-.01299,.00119,-.01063,.00296,0.0*
1,1,0.0,-.01063,.00296*
20,1,0.0,-.01063,.00296,-.00886,.00591,0.0*
1,1,0.0,-.00886,.00591*
20,1,0.0,-.00886,.00591,-.00768,.01004,0.0*
1,1,0.0,-.00768,.01004*
20,1,0.0,-.00768,.01004,-.00886,.01359,0.0*
1,1,0.0,-.00886,.01359*
20,1,0.0,-.00886,.01359,-.01122,.01595,0.0*
1,1,0.0,-.01122,.01595*
20,1,0.0,-.01122,.01595,-.01535,.01772,0.0*
1,1,0.0,-.01535,.01772*
20,1,0.0,-.01535,.01772,-.0313,.01772,0.0*
1,1,0.0,-.0313,.01772*
20,1,0.0,-.0313,.01772,-.0313,-.01771,0.0*
1,1,0.0,-.0313,-.01771*
20,1,0.0,-.0313,-.01771,-.01181,-.01771,0.0*
1,1,0.0,-.01181,-.01771*
20,1,0.0,-.01181,-.01771,-.00768,-.01535,0.0*
1,1,0.0,-.00768,-.01535*
20,1,0.0,-.00768,-.01535,-.00531,-.01181,0.0*
1,1,0.0,-.00531,-.01181*
20,1,0.0,-.00531,-.01181,-.00413,-.00767,0.0*
1,1,0.0,-.00413,-.00767*
20,1,0.0,-.00413,-.00767,-.00531,-.00354,0.0*
1,1,0.0,-.00531,-.00354*
20,1,0.0,-.00531,-.00354,-.00886,0.0,0.0*
1,1,0.0,-.00886,0.0*
20,1,0.0,-.00886,0.0,-.01299,.00119,0.0*
1,1,0.0,-.01299,.00119*
20,1,0.0,-.01299,.00119,-.0313,.00119,0.0*
1,1,0.0,-.0313,.00119*
1,1,0.0,.03072,.01477*
20,1,0.0,.03072,.01477,.02717,.01654,0.0*
1,1,0.0,.02717,.01654*
20,1,0.0,.02717,.01654,.02304,.01772,0.0*
1,1,0.0,.02304,.01772*
20,1,0.0,.02304,.01772,.01832,.01772,0.0*
1,1,0.0,.01832,.01772*
20,1,0.0,.01832,.01772,.013,.01595,0.0*
1,1,0.0,.013,.01595*
20,1,0.0,.013,.01595,.00887,.013,0.0*
1,1,0.0,.00887,.013*
20,1,0.0,.00887,.013,.00591,.00945,0.0*
1,1,0.0,.00591,.00945*
20,1,0.0,.00591,.00945,.00355,.00355,0.0*
1,1,0.0,.00355,.00355*
20,1,0.0,.00355,.00355,.00296,-.00177,0.0*
1,1,0.0,.00296,-.00177*
20,1,0.0,.00296,-.00177,.00414,-.00708,0.0*
1,1,0.0,.00414,-.00708*
20,1,0.0,.00414,-.00708,.00591,-.01062,0.0*
1,1,0.0,.00591,-.01062*
20,1,0.0,.00591,-.01062,.00946,-.01417,0.0*
1,1,0.0,.00946,-.01417*
20,1,0.0,.00946,-.01417,.01359,-.01653,0.0*
1,1,0.0,.01359,-.01653*
20,1,0.0,.01359,-.01653,.01772,-.01771,0.0*
1,1,0.0,.01772,-.01771*
20,1,0.0,.01772,-.01771,.02186,-.01771,0.0*
1,1,0.0,.02186,-.01771*
20,1,0.0,.02186,-.01771,.02599,-.01653,0.0*
1,1,0.0,.02599,-.01653*
20,1,0.0,.02599,-.01653,.02954,-.01476,0.0*
1,1,0.0,.02954,-.01476*
20,1,0.0,.02954,-.01476,.03249,-.0124,0.0*
1,1,0.0,.03249,-.0124*
%
%ADD17MACRO17*%
%AMMACRO16*
1,1,0.0,.025,0.0*
20,1,0.0,.025,0.0,.0125,.021651,0.0*
1,1,0.0,.0125,.021651*
20,1,0.0,.0125,.021651,-.0125,.021651,0.0*
1,1,0.0,-.0125,.021651*
20,1,0.0,-.0125,.021651,-.025,0.0,0.0*
1,1,0.0,-.025,0.0*
20,1,0.0,-.025,0.0,-.0125,-.021651,0.0*
1,1,0.0,-.0125,-.021651*
20,1,0.0,-.0125,-.021651,.0125,-.021651,0.0*
1,1,0.0,.0125,-.021651*
20,1,0.0,.0125,-.021651,.025,0.0,0.0*
1,1,0.0,.025,0.0*
%
%ADD16MACRO16*%
%AMMACRO13*
1,1,0.0,-.02,.0125*
20,1,0.0,-.02,.0125,-.019696,.015973,0.0*
1,1,0.0,-.019696,.015973*
20,1,0.0,-.019696,.015973,-.018794,.01934,0.0*
1,1,0.0,-.018794,.01934*
20,1,0.0,-.018794,.01934,-.017321,.0225,0.0*
1,1,0.0,-.017321,.0225*
20,1,0.0,-.017321,.0225,-.015321,.025356,0.0*
1,1,0.0,-.015321,.025356*
20,1,0.0,-.015321,.025356,-.012856,.027821,0.0*
1,1,0.0,-.012856,.027821*
20,1,0.0,-.012856,.027821,-.01,.029821,0.0*
1,1,0.0,-.01,.029821*
20,1,0.0,-.01,.029821,-.00684,.031294,0.0*
1,1,0.0,-.00684,.031294*
20,1,0.0,-.00684,.031294,-.003473,.032196,0.0*
1,1,0.0,-.003473,.032196*
20,1,0.0,-.003473,.032196,0.0,.0325,0.0*
1,1,0.0,0.0,.0325*
20,1,0.0,0.0,.0325,.003473,.032196,0.0*
1,1,0.0,.003473,.032196*
20,1,0.0,.003473,.032196,.00684,.031294,0.0*
1,1,0.0,.00684,.031294*
20,1,0.0,.00684,.031294,.01,.029821,0.0*
1,1,0.0,.01,.029821*
20,1,0.0,.01,.029821,.012856,.027821,0.0*
1,1,0.0,.012856,.027821*
20,1,0.0,.012856,.027821,.015321,.025356,0.0*
1,1,0.0,.015321,.025356*
20,1,0.0,.015321,.025356,.017321,.0225,0.0*
1,1,0.0,.017321,.0225*
20,1,0.0,.017321,.0225,.018794,.01934,0.0*
1,1,0.0,.018794,.01934*
20,1,0.0,.018794,.01934,.019696,.015973,0.0*
1,1,0.0,.019696,.015973*
20,1,0.0,.019696,.015973,.02,.0125,0.0*
1,1,0.0,.02,.0125*
20,1,0.0,.02,.0125,.02,-.0125,0.0*
1,1,0.0,.02,-.0125*
20,1,0.0,.02,-.0125,.019696,-.015973,0.0*
1,1,0.0,.019696,-.015973*
20,1,0.0,.019696,-.015973,.018794,-.01934,0.0*
1,1,0.0,.018794,-.01934*
20,1,0.0,.018794,-.01934,.017321,-.0225,0.0*
1,1,0.0,.017321,-.0225*
20,1,0.0,.017321,-.0225,.015321,-.025356,0.0*
1,1,0.0,.015321,-.025356*
20,1,0.0,.015321,-.025356,.012856,-.027821,0.0*
1,1,0.0,.012856,-.027821*
20,1,0.0,.012856,-.027821,.01,-.029821,0.0*
1,1,0.0,.01,-.029821*
20,1,0.0,.01,-.029821,.00684,-.031294,0.0*
1,1,0.0,.00684,-.031294*
20,1,0.0,.00684,-.031294,.003473,-.032196,0.0*
1,1,0.0,.003473,-.032196*
20,1,0.0,.003473,-.032196,0.0,-.0325,0.0*
1,1,0.0,0.0,-.0325*
20,1,0.0,0.0,-.0325,-.003473,-.032196,0.0*
1,1,0.0,-.003473,-.032196*
20,1,0.0,-.003473,-.032196,-.00684,-.031294,0.0*
1,1,0.0,-.00684,-.031294*
20,1,0.0,-.00684,-.031294,-.01,-.029821,0.0*
1,1,0.0,-.01,-.029821*
20,1,0.0,-.01,-.029821,-.012856,-.027821,0.0*
1,1,0.0,-.012856,-.027821*
20,1,0.0,-.012856,-.027821,-.015321,-.025356,0.0*
1,1,0.0,-.015321,-.025356*
20,1,0.0,-.015321,-.025356,-.017321,-.0225,0.0*
1,1,0.0,-.017321,-.0225*
20,1,0.0,-.017321,-.0225,-.018794,-.01934,0.0*
1,1,0.0,-.018794,-.01934*
20,1,0.0,-.018794,-.01934,-.019696,-.015973,0.0*
1,1,0.0,-.019696,-.015973*
20,1,0.0,-.019696,-.015973,-.02,-.0125,0.0*
1,1,0.0,-.02,-.0125*
20,1,0.0,-.02,-.0125,-.02,.0125,0.0*
1,1,0.0,-.02,.0125*
%
%ADD13MACRO13*%
%ADD19C,.01*%
G75*
%LPD*%
G75*
G54D10*
X16220Y6580D03*
Y7220D03*
X16796Y6580D03*
Y7220D03*
X19360Y6810D03*
G54D11*
X16390Y6560D03*
X16410Y7040D03*
X16420Y7240D03*
X16500Y7370D03*
X16240Y7680D03*
X16320Y7628D03*
X16530Y8190D03*
X16480Y8560D03*
X16370Y9050D03*
X16830Y6740D03*
X16620Y6710D03*
X16650Y7080D03*
X16790Y7380D03*
X16610Y7630D03*
X16830Y7680D03*
X16570Y7980D03*
X16830Y7900D03*
X16540Y8630D03*
X16640Y9240D03*
X16650Y9130D03*
X16670Y9070D03*
X16810Y9770D03*
X16570Y9750D03*
X17040Y6590D03*
X17050Y7120D03*
X16920Y7490D03*
X16910Y7670D03*
X17060Y7700D03*
X16940Y8850D03*
X16870Y8930D03*
X16850Y9300D03*
X16840Y9430D03*
X16940D03*
X17400Y6590D03*
Y7120D03*
X17220Y7280D03*
X17430Y7410D03*
X17150Y7630D03*
X17160Y7950D03*
X17240Y8310D03*
X17420Y8840D03*
X17210Y8760D03*
X17390Y8990D03*
X17180Y9210D03*
X17250Y9250D03*
X17340Y9290D03*
X17420Y9360D03*
X17230Y9700D03*
X17290Y9820D03*
X17510Y7670D03*
X17480Y9480D03*
X17940Y6930D03*
X17770Y7240D03*
X17930Y9001D03*
Y8910D03*
X18100Y8080D03*
X18290Y8790D03*
X18300Y9520D03*
X18360Y9200D03*
X19360Y8497D03*
G54D12*
X16390Y7940D03*
Y8140D03*
Y8340D03*
X17660Y9260D03*
Y9160D03*
Y9060D03*
Y9360D03*
X18140Y9670D03*
X18380Y8030D03*
Y8230D03*
X18340Y9670D03*
X19360Y8216D03*
G54D13*
X16530Y8980D03*
Y8880D03*
X16430Y8980D03*
Y8880D03*
X16330Y8980D03*
X16730D03*
Y8880D03*
X16630Y8980D03*
Y8880D03*
X17390Y9730D03*
X17690Y9630D03*
X17590D03*
X17490D03*
X17690Y9730D03*
X17590D03*
X17490D03*
X17790Y9630D03*
Y9730D03*
X19360Y7654D03*
G54D14*
X16330Y8880D03*
X17390Y9630D03*
X19360Y7934D03*
G54D15*
X17040Y6750D03*
X17050Y6960D03*
X17080Y7280D03*
X17140Y7540D03*
X17400Y6750D03*
X17410Y6960D03*
X17440Y7280D03*
X17500Y7540D03*
X19360Y8778D03*
G54D16*
X17630Y8820D03*
Y8920D03*
X18290Y8930D03*
X18190D03*
X18520D03*
X18420D03*
X19360Y7373D03*
G54D17*
X17770Y6900D03*
Y6800D03*
Y7000D03*
X17780Y7500D03*
Y7400D03*
Y7600D03*
X17790Y8070D03*
Y8270D03*
Y8170D03*
X18330Y6900D03*
Y6800D03*
Y7000D03*
X18250Y9300D03*
X18450D03*
X18350D03*
X19360Y7092D03*
G54D18*
X18590Y6500D03*
Y7700D03*
Y8540D03*
Y9720D03*
X19360Y6530D03*
G54D19*
G01X16100Y9900D02*
X18740D01*
Y6340D01*
X16100D01*
Y9900D01*
M02*
